<svg width="512" height="512" version="1.1" xmlns="http://www.w3.org/2000/svg"><path fill="rgb(0,0,0)" stroke="rgb(0,0,0)" stroke-width="1" opacity="0" d="M 0 0 L 512 0 L 512 512 L 0 512 L 0 0 Z M 24 46 L 9 54 L 2 69 L 2 444 L 9 458 L 24 466 L 489 466 L 502 459 L 506 454 L 510 444 L 510 69 L 503 55 Q 497 49 489 46 L 24 46 Z "></path><path fill="rgb(0,0,0)" stroke="rgb(0,0,0)" stroke-width="1" opacity="0" d="M 26.5 63 L 485.5 63 L 492 68.5 L 493 70.5 L 493 124 L 19.5 124 L 19 123.5 L 19 70.5 L 24.5 64 L 26.5 63 Z M 70 81 L 66 83 L 60 91 Q 59 98 62 101 L 68 105 Q 75 107 79 104 L 84 97 L 83 88 L 75 81 L 70 81 Z M 116 81 L 111 83 L 106 89 Q 105 96 107 100 L 114 105 Q 122 106 126 103 L 129 99 L 130 95 L 128 87 Q 125 81 116 81 Z M 162 81 L 157 83 L 151 91 Q 150 97 153 101 L 159 105 Q 166 107 170 104 L 175 98 L 175 90 L 172 84 L 166 81 L 162 81 Z "></path><path fill="rgb(0,0,0)" stroke="rgb(0,0,0)" stroke-width="1" opacity="0" d="M 19 141 L 493 141 L 493 441.5 L 487.5 448 L 485.5 449 L 26.5 449 L 20 443.5 L 19 441.5 L 19 141 Z M 147 217 L 145 218 L 69 324 L 70 330 L 76 334 L 141 334 L 141 368 L 142 370 L 147 373 L 155 372 L 158 368 L 158 334 L 177 334 L 181 332 L 183 328 Q 184 321 181 319 L 177 317 L 158 317 L 158 224 L 156 220 Q 154 216 147 217 Z M 250 217 Q 232 220 223 230 Q 211 240 208 259 L 208 333 Q 210 347 218 356 Q 228 369 248 373 Q 260 375 269 372 L 287 363 Q 300 353 304 333 L 304 259 Q 301 242 292 233 Q 284 223 272 219 L 263 217 L 250 217 Z M 407 217 L 405 218 L 329 323 Q 328 329 331 332 L 336 334 L 401 334 L 401 368 L 406 373 L 415 372 L 418 367 L 418 334 L 437 334 L 439 333 L 443 328 L 442 322 L 437 317 L 418 317 L 418 224 L 417 222 Q 415 216 407 217 Z "></path><path fill="rgb(0,0,0)" stroke="rgb(0,0,0)" stroke-width="1" opacity="0" d="M 250.5 234 L 265.5 235 Q 276.2 238.8 282 247.5 L 287 259.5 L 287 331.5 Q 284.1 342.6 276.5 349 Q 268.4 357.9 249.5 356 Q 238.3 353.3 232 345.5 L 225 331.5 L 225 259.5 Q 227.9 245.4 238.5 239 L 250.5 234 Z "></path><path fill="rgb(0,0,0)" stroke="rgb(0,0,0)" stroke-width="1" opacity="0" d="M 400.5 252 L 401 317 L 354 316.5 L 400.5 252 Z "></path><path fill="rgb(0,0,0)" stroke="rgb(0,0,0)" stroke-width="1" opacity="0" d="M 140.5 253 L 141 317 L 95.5 317 L 95 315.5 L 140.5 253 Z "></path><path fill="rgb(56,129,255)" stroke="rgb(56,129,255)" stroke-width="1" opacity="0.9294117647058824" d="M 23.5 46 L 488.5 46 Q 497.4 48.6 503 54.5 L 510 68.5 L 510 443.5 L 506 453.5 L 502 459 L 488.5 466 L 23.5 466 L 9 458 L 2 443.5 L 2 68.5 L 9 54 L 23.5 46 Z M 27 63 L 25 64 L 19 71 L 19 124 L 20 124 L 493 124 L 493 71 L 492 69 L 486 63 L 27 63 Z M 19 141 L 19 442 L 20 444 L 27 449 L 486 449 L 488 448 L 493 442 L 493 141 L 19 141 Z "></path><path fill="rgb(56,129,255)" stroke="rgb(56,129,255)" stroke-width="1" opacity="0.9294117647058824" d="M 69.5 81 L 74.5 81 L 83 87.5 L 84 96.5 L 78.5 104 Q 75 106.5 67.5 105 L 62 100.5 Q 59 97.5 60 90.5 L 65.5 83 L 69.5 81 Z "></path><path fill="rgb(56,129,255)" stroke="rgb(56,129,255)" stroke-width="1" opacity="0.9294117647058824" d="M 115.5 81 Q 124.7 80.8 128 86.5 L 130 94.5 L 129 98.5 L 125.5 103 Q 121.8 106.3 113.5 105 L 107 99.5 Q 104.5 96 106 88.5 L 110.5 83 L 115.5 81 Z "></path><path fill="rgb(56,129,255)" stroke="rgb(56,129,255)" stroke-width="1" opacity="0.9294117647058824" d="M 161.5 81 L 165.5 81 L 172 84 L 175 89.5 L 175 97.5 L 169.5 104 Q 166 106.5 158.5 105 L 153 100.5 Q 150.3 97.2 151 90.5 L 156.5 83 L 161.5 81 Z "></path><path fill="rgb(56,129,255)" stroke="rgb(56,129,255)" stroke-width="1" opacity="0.9294117647058824" d="M 146.5 217 Q 153.8 215.8 156 219.5 L 158 223.5 L 158 317 L 176.5 317 L 181 319 Q 183.6 321.3 183 327.5 L 181 332 L 176.5 334 L 158 334 L 158 367.5 L 154.5 372 L 146.5 373 L 142 369.5 L 141 367.5 L 141 334 L 75.5 334 L 70 329.5 L 69 323.5 L 144.5 218 L 146.5 217 Z M 141 253 L 95 316 L 96 317 L 141 317 L 141 253 Z "></path><path fill="rgb(56,129,255)" stroke="rgb(56,129,255)" stroke-width="1" opacity="0.9294117647058824" d="M 249.5 217 L 262.5 217 L 271.5 219 Q 284.1 223.4 292 232.5 Q 301.4 242.1 304 258.5 L 304 332.5 Q 300 352.5 286.5 363 L 268.5 372 Q 260.2 374.7 247.5 373 Q 228.3 368.7 218 355.5 Q 210.5 346.5 208 332.5 L 208 258.5 Q 211.1 240.1 222.5 230 Q 232.3 219.8 249.5 217 Z M 251 234 L 239 239 Q 228 245 225 260 L 225 332 L 232 346 Q 238 353 250 356 Q 268 358 277 349 Q 284 343 287 332 L 287 260 L 282 248 Q 276 239 266 235 L 251 234 Z "></path><path fill="rgb(56,129,255)" stroke="rgb(56,129,255)" stroke-width="1" opacity="0.9294117647058824" d="M 406.5 217 Q 415.1 215.9 417 221.5 L 418 223.5 L 418 317 L 436.5 317 L 442 321.5 L 443 327.5 L 438.5 333 L 436.5 334 L 418 334 L 418 366.5 L 414.5 372 L 405.5 373 L 401 367.5 L 401 334 L 335.5 334 L 331 332 Q 328.3 329.4 329 322.5 L 404.5 218 L 406.5 217 Z M 401 252 L 354 317 L 401 317 L 401 252 Z "></path></svg>