<svg width="512" height="512" version="1.1" xmlns="http://www.w3.org/2000/svg"><path fill="rgb(0,0,0)" stroke="rgb(0,0,0)" stroke-width="1" opacity="0" d="M 0 0 L 512 0 L 512 512 L 0 512 L 0 0 Z M 124 13 L 119 14 L 108 20 Q 100 26 97 37 L 96 58 L 33 58 Q 24 60 19 64 L 14 73 L 13 78 L 13 480 L 14 485 L 18 492 Q 23 497 32 499 L 171 499 L 175 497 L 177 492 L 176 488 L 172 484 L 34 484 L 32 483 L 28 479 L 28 177 L 484 177 L 484 479 L 483 481 L 479 484 L 353 484 L 351 485 Q 347 487 348 495 L 354 499 L 481 499 L 492 494 Q 497 489 499 480 L 499 78 L 498 73 L 493 64 Q 488 60 480 58 L 416 58 L 415 37 L 409 25 Q 402 16 389 13 L 375 14 L 364 20 L 357 28 L 353 37 Q 354 41 352 43 L 352 58 L 352 58 L 160 58 L 159 37 L 153 25 Q 147 17 138 14 L 124 13 Z M 178 204 L 171 207 L 165 217 L 165 265 L 168 272 L 178 277 L 225 277 L 234 273 L 238 264 L 238 218 L 234 208 L 225 204 L 178 204 Z M 288 204 L 280 207 L 277 210 L 274 218 L 274 264 L 278 273 L 288 277 L 335 277 L 342 274 L 347 265 L 347 217 L 344 210 L 335 204 L 288 204 Z M 397 204 L 387 208 L 384 214 L 383 219 L 383 263 L 384 268 L 387 273 L 397 277 L 444 277 L 451 274 L 456 266 L 456 216 L 453 210 Q 450 205 444 204 L 397 204 Z M 69 294 L 62 297 Q 57 300 56 306 L 56 356 L 59 362 L 62 364 L 70 367 L 116 367 L 125 363 L 128 358 L 129 353 L 129 309 L 128 304 L 125 298 L 117 294 L 69 294 Z M 396 294 L 387 298 L 384 304 L 383 309 L 383 353 L 384 358 L 387 363 L 397 367 L 443 367 L 451 364 L 456 356 L 456 306 L 454 301 Q 451 295 444 294 L 396 294 Z M 224 307 L 219 309 L 193 335 Q 188 328 181 325 Q 174 325 172 330 L 173 338 L 190 353 L 198 352 L 231 318 L 230 311 L 228 308 L 224 307 Z M 333 307 L 328 309 L 302 335 Q 297 328 289 325 L 285 326 L 281 331 L 282 338 L 297 352 L 306 353 L 340 318 L 339 311 L 337 308 L 333 307 Z M 68 384 L 63 386 Q 58 389 56 396 L 56 446 L 59 452 L 62 454 L 70 457 L 115 457 L 122 455 L 127 450 L 129 443 L 129 399 L 128 394 L 125 389 L 117 384 L 68 384 Z M 177 384 L 171 387 Q 166 390 165 397 L 165 445 L 168 452 L 175 456 L 180 457 L 224 457 L 229 456 L 234 453 L 238 444 L 238 398 L 235 390 L 227 384 L 177 384 Z M 286 384 L 280 387 L 277 390 L 274 398 L 274 444 L 278 453 L 284 456 L 289 457 L 333 457 L 338 456 L 343 453 L 347 445 L 347 397 L 344 390 L 336 384 L 286 384 Z M 215 484 L 210 490 L 211 496 L 216 499 L 240 499 L 244 497 Q 246 494 245 488 L 241 484 L 215 484 Z M 284 484 L 279 490 L 280 496 L 285 499 L 309 499 L 311 498 Q 315 496 314 489 L 310 484 L 284 484 Z "></path><path fill="rgb(0,0,0)" stroke="rgb(0,0,0)" stroke-width="1" opacity="0" d="M 124.5 28 Q 137.9 27.1 142 35.5 L 145 42.5 L 145 89.5 Q 143.2 97.2 137.5 101 Q 133.5 104 126.5 104 Q 118 102.5 114 96.5 L 111 89.5 L 111 42.5 Q 113.2 34.1 119.5 30 L 124.5 28 Z "></path><path fill="rgb(0,0,0)" stroke="rgb(0,0,0)" stroke-width="1" opacity="0" d="M 380.5 28 Q 393.9 27.1 398 35.5 L 401 42.5 L 401 89.5 Q 399.1 97.2 393.5 101 Q 389.5 104 382.5 104 Q 374 102.5 370 96.5 L 367 89.5 L 367 42.5 Q 369.2 34.1 375.5 30 L 380.5 28 Z "></path><path fill="rgb(0,0,0)" stroke="rgb(0,0,0)" stroke-width="1" opacity="0" d="M 33.5 73 L 95.5 73 L 96 73.5 L 96 89.5 L 100 102.5 L 109.5 113 L 120.5 118 L 128.5 119 L 143.5 115 L 154 105.5 L 158 98.5 L 160 89.5 L 160 73 L 351.5 73 L 352 73.5 L 352 89.5 L 356 102.5 L 365.5 113 L 376.5 118 L 384.5 119 L 399.5 115 L 410 105.5 L 414 98.5 L 416 89.5 L 416 73 L 478.5 73 L 483 76.5 L 484 78.5 L 484 162 L 28.5 162 L 28 161.5 L 28 78.5 L 31.5 74 L 33.5 73 Z "></path><path fill="rgb(0,0,0)" stroke="rgb(0,0,0)" stroke-width="1" opacity="0" d="M 180 219 L 223 219 L 223 262 L 180 262 L 180 219 Z "></path><path fill="rgb(0,0,0)" stroke="rgb(0,0,0)" stroke-width="1" opacity="0" d="M 289 219 L 332 219 L 332 262 L 289 262 L 289 219 Z "></path><path fill="rgb(0,0,0)" stroke="rgb(0,0,0)" stroke-width="1" opacity="0" d="M 398 219 L 441 219 L 441 262 L 398 262 L 398 219 Z "></path><path fill="rgb(0,0,0)" stroke="rgb(0,0,0)" stroke-width="1" opacity="0" d="M 71 309 L 114 309 L 114 352 L 71 352 L 71 309 Z "></path><path fill="rgb(0,0,0)" stroke="rgb(0,0,0)" stroke-width="1" opacity="0" d="M 398 309 L 441 309 L 441 352 L 398 352 L 398 309 Z "></path><path fill="rgb(0,0,0)" stroke="rgb(0,0,0)" stroke-width="1" opacity="0" d="M 71 399 L 114 399 L 114 442 L 71 442 L 71 399 Z "></path><path fill="rgb(0,0,0)" stroke="rgb(0,0,0)" stroke-width="1" opacity="0" d="M 180 399 L 223 399 L 223 442 L 180 442 L 180 399 Z "></path><path fill="rgb(0,0,0)" stroke="rgb(0,0,0)" stroke-width="1" opacity="0" d="M 289 399 L 332 399 L 332 442 L 289 442 L 289 399 Z "></path><path fill="rgb(254,110,0)" stroke="rgb(254,110,0)" stroke-width="1" opacity="0.4470588235294118" d="M 123.5 13 L 133 13.5 L 123.5 14 L 123.5 13 Z "></path><path fill="rgb(254,110,0)" stroke="rgb(254,110,0)" stroke-width="1" opacity="0.4470588235294118" d="M 379.5 13 L 389 13.5 L 379.5 14 L 379.5 13 Z "></path><path fill="rgb(254,110,0)" stroke="rgb(254,110,0)" stroke-width="1" opacity="0.4470588235294118" d="M 118.5 14 L 122 14.5 L 116.5 16 L 116.5 15 L 118.5 14 Z "></path><path fill="rgb(254,110,0)" stroke="rgb(254,110,0)" stroke-width="1" opacity="0.4470588235294118" d="M 134.5 14 L 140 15.5 L 138.5 16 L 134.5 15 L 134.5 14 Z "></path><path fill="rgb(254,110,0)" stroke="rgb(254,110,0)" stroke-width="1" opacity="0.4470588235294118" d="M 374.5 14 L 378 14.5 L 372.5 16 L 372.5 15 L 374.5 14 Z "></path><path fill="rgb(254,110,0)" stroke="rgb(254,110,0)" stroke-width="1" opacity="0.4470588235294118" d="M 390.5 14 L 396 15.5 L 394.5 16 L 390.5 15 L 390.5 14 Z "></path><path fill="rgb(254,110,0)" stroke="rgb(254,110,0)" stroke-width="1" opacity="0.4470588235294118" d="M 112.5 17 L 111.5 19 L 102 27.5 L 98.5 35 L 98 33.5 Q 101.1 25.1 107.5 20 L 112.5 17 Z "></path><path fill="rgb(254,110,0)" stroke="rgb(254,110,0)" stroke-width="1" opacity="0.4470588235294118" d="M 143.5 17 L 153 24.5 L 158 34.5 L 157 34.5 Q 153.9 24.1 145.5 19 L 143.5 17 Z "></path><path fill="rgb(254,110,0)" stroke="rgb(254,110,0)" stroke-width="1" opacity="0.4470588235294118" d="M 368.5 17 L 367.5 19 L 358 27.5 L 354.5 35 L 354 33.5 Q 357.1 25.1 363.5 20 L 368.5 17 Z "></path><path fill="rgb(254,110,0)" stroke="rgb(254,110,0)" stroke-width="1" opacity="0.4470588235294118" d="M 399.5 17 L 409 24.5 L 414 34.5 L 413 34.5 Q 409.9 24.1 401.5 19 L 399.5 17 Z "></path><path fill="rgb(254,110,0)" stroke="rgb(254,110,0)" stroke-width="1" opacity="0.4470588235294118" d="M 125.5 27 L 131 27.5 L 125.5 28 L 125.5 27 Z "></path><path fill="rgb(254,110,0)" stroke="rgb(254,110,0)" stroke-width="1" opacity="0.4470588235294118" d="M 381.5 27 L 387 27.5 L 381.5 28 L 381.5 27 Z "></path><path fill="rgb(254,110,0)" stroke="rgb(254,110,0)" stroke-width="1" opacity="0.4470588235294118" d="M 119.5 29 L 121 29.5 L 114 35.5 L 111.5 42 L 111 39.5 L 119.5 29 Z "></path><path fill="rgb(254,110,0)" stroke="rgb(254,110,0)" stroke-width="1" opacity="0.4470588235294118" d="M 135.5 29 L 143 35.5 L 145 41.5 L 144 41.5 Q 142.6 33.4 136.5 30 L 135.5 29 Z "></path><path fill="rgb(254,110,0)" stroke="rgb(254,110,0)" stroke-width="1" opacity="0.4470588235294118" d="M 375.5 29 L 377 29.5 L 370 35.5 L 367.5 42 L 367 39.5 L 375.5 29 Z "></path><path fill="rgb(254,110,0)" stroke="rgb(254,110,0)" stroke-width="1" opacity="0.4470588235294118" d="M 391.5 29 L 399 35.5 L 401 41.5 L 400 41.5 Q 398.6 33.4 392.5 30 L 391.5 29 Z "></path><path fill="rgb(254,110,0)" stroke="rgb(254,110,0)" stroke-width="1" opacity="0.4470588235294118" d="M 97.5 36 L 98 39.5 L 97 39.5 L 97.5 36 Z "></path><path fill="rgb(254,110,0)" stroke="rgb(254,110,0)" stroke-width="1" opacity="0.4470588235294118" d="M 158.5 36 L 159 39.5 L 158 39.5 L 158.5 36 Z "></path><path fill="rgb(254,110,0)" stroke="rgb(254,110,0)" stroke-width="1" opacity="0.4470588235294118" d="M 353.5 36 L 354 39.5 L 353 39.5 L 353.5 36 Z "></path><path fill="rgb(254,110,0)" stroke="rgb(254,110,0)" stroke-width="1" opacity="0.4470588235294118" d="M 414.5 36 L 415 39.5 L 414 39.5 L 414.5 36 Z "></path><path fill="rgb(254,110,0)" stroke="rgb(254,110,0)" stroke-width="1" opacity="0.4470588235294118" d="M 96.5 42 L 97 59 L 32 58.5 L 96 58 L 96.5 42 Z "></path><path fill="rgb(254,110,0)" stroke="rgb(254,110,0)" stroke-width="1" opacity="0.4470588235294118" d="M 159.5 42 L 160 58 L 351.5 58 L 352 57.5 L 352 42.5 L 353 42.5 L 353 58.5 L 352.5 59 L 159 59 L 159.5 42 Z "></path><path fill="rgb(254,110,0)" stroke="rgb(254,110,0)" stroke-width="1" opacity="0.4470588235294118" d="M 415.5 42 L 416 58 L 480 58.5 L 415 59 L 415.5 42 Z "></path><path fill="rgb(254,110,0)" stroke="rgb(254,110,0)" stroke-width="1" opacity="0.4470588235294118" d="M 110.5 44 L 111 62.5 L 110 62.5 L 110.5 44 Z "></path><path fill="rgb(254,110,0)" stroke="rgb(254,110,0)" stroke-width="1" opacity="0.4470588235294118" d="M 145.5 44 L 146 62.5 L 145 62.5 L 145.5 44 Z "></path><path fill="rgb(254,110,0)" stroke="rgb(254,110,0)" stroke-width="1" opacity="0.4470588235294118" d="M 366.5 44 L 367 62.5 L 366 62.5 L 366.5 44 Z "></path><path fill="rgb(254,110,0)" stroke="rgb(254,110,0)" stroke-width="1" opacity="0.4470588235294118" d="M 401.5 44 L 402 62.5 L 401 62.5 L 401.5 44 Z "></path><path fill="rgb(254,110,0)" stroke="rgb(254,110,0)" stroke-width="1" opacity="0.4470588235294118" d="M 28.5 59 L 31 59.5 L 28.5 60 L 28.5 59 Z "></path><path fill="rgb(254,110,0)" stroke="rgb(254,110,0)" stroke-width="1" opacity="0.4470588235294118" d="M 481.5 59 L 484 59.5 L 481.5 60 L 481.5 59 Z "></path><path fill="rgb(254,110,0)" stroke="rgb(254,110,0)" stroke-width="1" opacity="0.4470588235294118" d="M 25.5 60 L 27 60.5 Q 20.2 62.7 17 68.5 L 14.5 75 L 14 72.5 L 19 64 L 25.5 60 Z "></path><path fill="rgb(254,110,0)" stroke="rgb(254,110,0)" stroke-width="1" opacity="0.4470588235294118" d="M 485.5 60 L 493 64 L 498 74.5 L 497 74.5 Q 495.4 65.6 488.5 62 Q 484.8 61.7 485.5 60 Z "></path><path fill="rgb(254,110,0)" stroke="rgb(254,110,0)" stroke-width="1" opacity="0.4470588235294118" d="M 110.5 69 L 111 86.5 L 110 86.5 L 110.5 69 Z "></path><path fill="rgb(254,110,0)" stroke="rgb(254,110,0)" stroke-width="1" opacity="0.4470588235294118" d="M 145.5 69 L 146 86.5 L 145 86.5 L 145.5 69 Z "></path><path fill="rgb(254,110,0)" stroke="rgb(254,110,0)" stroke-width="1" opacity="0.4470588235294118" d="M 366.5 69 L 367 86.5 L 366 86.5 L 366.5 69 Z "></path><path fill="rgb(254,110,0)" stroke="rgb(254,110,0)" stroke-width="1" opacity="0.4470588235294118" d="M 401.5 69 L 402 86.5 L 401 86.5 L 401.5 69 Z "></path><path fill="rgb(254,110,0)" stroke="rgb(254,110,0)" stroke-width="1" opacity="0.4470588235294118" d="M 31.5 73 L 33 73.5 L 29 76.5 L 28.5 78 L 28 76.5 L 31.5 73 Z "></path><path fill="rgb(254,110,0)" stroke="rgb(254,110,0)" stroke-width="1" opacity="0.4470588235294118" d="M 96.5 73 L 97 89.5 L 96 89.5 L 96.5 73 Z "></path><path fill="rgb(254,110,0)" stroke="rgb(254,110,0)" stroke-width="1" opacity="0.4470588235294118" d="M 159.5 73 L 160 89.5 L 159 89.5 L 159.5 73 Z "></path><path fill="rgb(254,110,0)" stroke="rgb(254,110,0)" stroke-width="1" opacity="0.4470588235294118" d="M 352.5 73 L 353 89.5 L 352 89.5 L 352.5 73 Z "></path><path fill="rgb(254,110,0)" stroke="rgb(254,110,0)" stroke-width="1" opacity="0.4470588235294118" d="M 415.5 73 L 416 89.5 L 415 89.5 L 415.5 73 Z "></path><path fill="rgb(254,110,0)" stroke="rgb(254,110,0)" stroke-width="1" opacity="0.4470588235294118" d="M 479.5 73 L 484 76.5 L 483.5 78 L 480.5 74 L 479.5 73 Z "></path><path fill="rgb(254,110,0)" stroke="rgb(254,110,0)" stroke-width="1" opacity="0.4470588235294118" d="M 13.5 77 L 14 479.5 L 13 479.5 L 13.5 77 Z "></path><path fill="rgb(254,110,0)" stroke="rgb(254,110,0)" stroke-width="1" opacity="0.4470588235294118" d="M 498.5 77 L 499 479.5 L 498 479.5 L 498.5 77 Z "></path><path fill="rgb(254,110,0)" stroke="rgb(254,110,0)" stroke-width="1" opacity="0.4470588235294118" d="M 27.5 79 L 28 162 L 483.5 162 L 484 161.5 L 484 79.5 L 485 79.5 L 485 161.5 L 483.5 163 L 28.5 163 L 27 161.5 L 27.5 79 Z "></path><path fill="rgb(254,110,0)" stroke="rgb(254,110,0)" stroke-width="1" opacity="0.4470588235294118" d="M 111.5 90 Q 113 97.5 118.5 101 L 126 103.5 L 122.5 104 L 113 96.5 Q 110 94 111.5 90 Z "></path><path fill="rgb(254,110,0)" stroke="rgb(254,110,0)" stroke-width="1" opacity="0.4470588235294118" d="M 144.5 90 L 145 92.5 L 137.5 102 L 130.5 104 L 130.5 103 Q 138.8 102.3 142 96.5 L 144.5 90 Z "></path><path fill="rgb(254,110,0)" stroke="rgb(254,110,0)" stroke-width="1" opacity="0.4470588235294118" d="M 367.5 90 Q 369 97.5 374.5 101 L 382 103.5 L 378.5 104 L 369 96.5 Q 366 94 367.5 90 Z "></path><path fill="rgb(254,110,0)" stroke="rgb(254,110,0)" stroke-width="1" opacity="0.4470588235294118" d="M 400.5 90 L 401 92.5 L 393.5 102 L 386.5 104 L 386.5 103 Q 394.8 102.3 398 96.5 L 400.5 90 Z "></path><path fill="rgb(254,110,0)" stroke="rgb(254,110,0)" stroke-width="1" opacity="0.4470588235294118" d="M 97.5 92 Q 99.9 105.6 109.5 112 L 116 115.5 L 114.5 116 L 102 105.5 Q 96.9 100.4 97.5 92 Z "></path><path fill="rgb(254,110,0)" stroke="rgb(254,110,0)" stroke-width="1" opacity="0.4470588235294118" d="M 158.5 92 L 159 94.5 L 158 94.5 L 158.5 92 Z "></path><path fill="rgb(254,110,0)" stroke="rgb(254,110,0)" stroke-width="1" opacity="0.4470588235294118" d="M 353.5 92 Q 355.9 105.6 365.5 112 L 372 115.5 L 370.5 116 L 358 105.5 Q 352.9 100.4 353.5 92 Z "></path><path fill="rgb(254,110,0)" stroke="rgb(254,110,0)" stroke-width="1" opacity="0.4470588235294118" d="M 414.5 92 L 415 94.5 L 414 94.5 L 414.5 92 Z "></path><path fill="rgb(254,110,0)" stroke="rgb(254,110,0)" stroke-width="1" opacity="0.4470588235294118" d="M 157.5 96 L 158 98.5 Q 154 107.5 146.5 113 L 140.5 116 L 140.5 115 Q 148.6 112.1 153 105.5 L 157.5 96 Z "></path><path fill="rgb(254,110,0)" stroke="rgb(254,110,0)" stroke-width="1" opacity="0.4470588235294118" d="M 413.5 96 L 414 98.5 Q 410 107.5 402.5 113 L 396.5 116 L 396.5 115 Q 404.6 112.1 409 105.5 L 413.5 96 Z "></path><path fill="rgb(254,110,0)" stroke="rgb(254,110,0)" stroke-width="1" opacity="0.4470588235294118" d="M 120.5 117 L 124 117.5 L 120.5 118 L 120.5 117 Z "></path><path fill="rgb(254,110,0)" stroke="rgb(254,110,0)" stroke-width="1" opacity="0.4470588235294118" d="M 132.5 117 L 136 117.5 L 132.5 118 L 132.5 117 Z "></path><path fill="rgb(254,110,0)" stroke="rgb(254,110,0)" stroke-width="1" opacity="0.4470588235294118" d="M 376.5 117 L 380 117.5 L 376.5 118 L 376.5 117 Z "></path><path fill="rgb(254,110,0)" stroke="rgb(254,110,0)" stroke-width="1" opacity="0.4470588235294118" d="M 388.5 117 L 392 117.5 L 388.5 118 L 388.5 117 Z "></path><path fill="rgb(254,110,0)" stroke="rgb(254,110,0)" stroke-width="1" opacity="0.4470588235294118" d="M 27.5 177 L 28 477.5 L 27 477.5 L 27.5 177 Z "></path><path fill="rgb(254,110,0)" stroke="rgb(254,110,0)" stroke-width="1" opacity="0.4470588235294118" d="M 484.5 177 L 485 477.5 L 484 477.5 L 484.5 177 Z "></path><path fill="rgb(254,110,0)" stroke="rgb(254,110,0)" stroke-width="1" opacity="0.4470588235294118" d="M 177.5 204 L 225 204.5 L 177.5 205 L 177.5 204 Z "></path><path fill="rgb(254,110,0)" stroke="rgb(254,110,0)" stroke-width="1" opacity="0.4470588235294118" d="M 287.5 204 L 335 204.5 L 287.5 205 L 287.5 204 Z "></path><path fill="rgb(254,110,0)" stroke="rgb(254,110,0)" stroke-width="1" opacity="0.4470588235294118" d="M 396.5 204 L 444 204.5 L 396.5 205 L 396.5 204 Z "></path><path fill="rgb(254,110,0)" stroke="rgb(254,110,0)" stroke-width="1" opacity="0.4470588235294118" d="M 283.5 205 L 285 205.5 L 277 211.5 L 275.5 215 L 275 213.5 L 279.5 207 L 283.5 205 Z "></path><path fill="rgb(254,110,0)" stroke="rgb(254,110,0)" stroke-width="1" opacity="0.4470588235294118" d="M 392.5 205 L 394 205.5 L 386 211.5 L 384.5 216 L 384 213.5 L 387 208 L 392.5 205 Z "></path><path fill="rgb(254,110,0)" stroke="rgb(254,110,0)" stroke-width="1" opacity="0.4470588235294118" d="M 445.5 205 L 447.5 205 L 453 209.5 L 456 215.5 L 456 265.5 L 450.5 274 L 445.5 276 L 445.5 275 L 452 271.5 L 455 265.5 L 455 215.5 L 450.5 208 L 445.5 206 L 445.5 205 Z "></path><path fill="rgb(254,110,0)" stroke="rgb(254,110,0)" stroke-width="1" opacity="0.4470588235294118" d="M 172.5 206 L 171.5 208 Q 169.3 207.3 170 209.5 L 167 211.5 L 170.5 207 L 172.5 206 Z "></path><path fill="rgb(254,110,0)" stroke="rgb(254,110,0)" stroke-width="1" opacity="0.4470588235294118" d="M 230.5 206 L 234 208 L 237 214.5 L 236 214.5 L 230.5 206 Z "></path><path fill="rgb(254,110,0)" stroke="rgb(254,110,0)" stroke-width="1" opacity="0.4470588235294118" d="M 339.5 206 L 344 209.5 L 345 211.5 L 343 210.5 Q 343.8 208.3 341.5 209 L 339.5 206 Z "></path><path fill="rgb(254,110,0)" stroke="rgb(254,110,0)" stroke-width="1" opacity="0.4470588235294118" d="M 165.5 216 L 166 264.5 L 165 264.5 L 165.5 216 Z "></path><path fill="rgb(254,110,0)" stroke="rgb(254,110,0)" stroke-width="1" opacity="0.4470588235294118" d="M 346.5 216 L 347 264.5 L 346 264.5 L 346.5 216 Z "></path><path fill="rgb(254,110,0)" stroke="rgb(254,110,0)" stroke-width="1" opacity="0.4470588235294118" d="M 237.5 217 L 238 263.5 L 237 263.5 L 237.5 217 Z "></path><path fill="rgb(254,110,0)" stroke="rgb(254,110,0)" stroke-width="1" opacity="0.4470588235294118" d="M 274.5 217 L 275 263.5 L 274 263.5 L 274.5 217 Z "></path><path fill="rgb(254,110,0)" stroke="rgb(254,110,0)" stroke-width="1" opacity="0.4470588235294118" d="M 180.5 218 L 222.5 218 L 224 219.5 L 224 261.5 L 222.5 263 L 180.5 263 L 179 261.5 L 179 219.5 L 180.5 218 Z M 180 219 L 180 262 L 223 262 L 223 219 L 180 219 Z "></path><path fill="rgb(254,110,0)" stroke="rgb(254,110,0)" stroke-width="1" opacity="0.4470588235294118" d="M 289.5 218 L 331.5 218 L 333 219.5 L 333 261.5 L 331.5 263 L 289.5 263 L 288 261.5 L 288 219.5 L 289.5 218 Z M 289 219 L 289 262 L 332 262 L 332 219 L 289 219 Z "></path><path fill="rgb(254,110,0)" stroke="rgb(254,110,0)" stroke-width="1" opacity="0.4470588235294118" d="M 383.5 218 L 384 262.5 L 383 262.5 L 383.5 218 Z "></path><path fill="rgb(254,110,0)" stroke="rgb(254,110,0)" stroke-width="1" opacity="0.4470588235294118" d="M 398.5 218 L 440.5 218 L 442 219.5 L 442 261.5 L 440.5 263 L 398 262.5 L 441 262 L 441 219 L 398.5 219 L 398.5 218 Z "></path><path fill="rgb(254,110,0)" stroke="rgb(254,110,0)" stroke-width="1" opacity="0.4470588235294118" d="M 384.5 265 Q 385.6 271.4 390.5 274 L 394 275.5 L 392.5 276 L 387 273 L 384 267.5 L 384.5 265 Z "></path><path fill="rgb(254,110,0)" stroke="rgb(254,110,0)" stroke-width="1" opacity="0.4470588235294118" d="M 236.5 266 L 237 267.5 L 234 273 L 227.5 276 L 227.5 275 L 235 269.5 L 236.5 266 Z "></path><path fill="rgb(254,110,0)" stroke="rgb(254,110,0)" stroke-width="1" opacity="0.4470588235294118" d="M 275.5 266 L 281.5 274 L 285 275.5 L 283.5 276 L 278 272.5 L 275 267.5 L 275.5 266 Z "></path><path fill="rgb(254,110,0)" stroke="rgb(254,110,0)" stroke-width="1" opacity="0.4470588235294118" d="M 167.5 269 L 176 275.5 L 174.5 276 L 168 271.5 L 167.5 269 Z "></path><path fill="rgb(254,110,0)" stroke="rgb(254,110,0)" stroke-width="1" opacity="0.4470588235294118" d="M 344.5 269 L 344 270.5 L 341.5 274 L 339.5 275 L 341.5 272 Q 343.8 272.8 343 270.5 L 344.5 269 Z "></path><path fill="rgb(254,110,0)" stroke="rgb(254,110,0)" stroke-width="1" opacity="0.4470588235294118" d="M 177.5 276 L 225 276.5 L 177.5 277 L 177.5 276 Z "></path><path fill="rgb(254,110,0)" stroke="rgb(254,110,0)" stroke-width="1" opacity="0.4470588235294118" d="M 287.5 276 L 335 276.5 L 287.5 277 L 287.5 276 Z "></path><path fill="rgb(254,110,0)" stroke="rgb(254,110,0)" stroke-width="1" opacity="0.4470588235294118" d="M 396.5 276 L 444 276.5 L 396.5 277 L 396.5 276 Z "></path><path fill="rgb(254,110,0)" stroke="rgb(254,110,0)" stroke-width="1" opacity="0.4470588235294118" d="M 68.5 294 L 117 294.5 L 68.5 295 L 68.5 294 Z "></path><path fill="rgb(254,110,0)" stroke="rgb(254,110,0)" stroke-width="1" opacity="0.4470588235294118" d="M 395.5 294 L 444 294.5 L 395.5 295 L 395.5 294 Z "></path><path fill="rgb(254,110,0)" stroke="rgb(254,110,0)" stroke-width="1" opacity="0.4470588235294118" d="M 64.5 295 L 67 295.5 L 60 299.5 L 57 305.5 L 57 355.5 L 61.5 363 L 67 365.5 L 65.5 366 L 59 361.5 L 56 355.5 L 56 305.5 Q 57.3 299.8 61.5 297 L 64.5 295 Z "></path><path fill="rgb(254,110,0)" stroke="rgb(254,110,0)" stroke-width="1" opacity="0.4470588235294118" d="M 392.5 295 L 394 295.5 L 386 301.5 L 384.5 306 L 384 303.5 L 387 298 L 392.5 295 Z "></path><path fill="rgb(254,110,0)" stroke="rgb(254,110,0)" stroke-width="1" opacity="0.4470588235294118" d="M 445.5 295 L 447.5 295 L 454 300.5 L 456 305.5 L 456 355.5 L 450.5 364 L 448.5 365 L 449.5 363 L 452 361.5 L 455 355.5 L 455 305.5 L 450.5 298 L 445.5 296 L 445.5 295 Z "></path><path fill="rgb(254,110,0)" stroke="rgb(254,110,0)" stroke-width="1" opacity="0.4470588235294118" d="M 121.5 296 L 125 298 L 128 305.5 L 127 305.5 L 126 301.5 L 121.5 296 Z "></path><path fill="rgb(254,110,0)" stroke="rgb(254,110,0)" stroke-width="1" opacity="0.4470588235294118" d="M 71.5 308 L 114 308.5 L 71 309 L 71 352 L 113.5 352 L 113.5 353 L 71.5 353 L 70 351.5 L 70 309.5 L 71.5 308 Z "></path><path fill="rgb(254,110,0)" stroke="rgb(254,110,0)" stroke-width="1" opacity="0.4470588235294118" d="M 128.5 308 L 129 352.5 L 128 352.5 L 128.5 308 Z "></path><path fill="rgb(254,110,0)" stroke="rgb(254,110,0)" stroke-width="1" opacity="0.4470588235294118" d="M 220.5 308 L 222 308.5 L 193.5 336 L 191.5 336 L 182.5 326 L 192.5 335 L 220.5 308 Z "></path><path fill="rgb(254,110,0)" stroke="rgb(254,110,0)" stroke-width="1" opacity="0.4470588235294118" d="M 226.5 308 L 230 310.5 L 231 317.5 L 197.5 352 L 194.5 353 L 194.5 352 L 197.5 351 L 229 319.5 L 230 312.5 L 227.5 309 L 226.5 308 Z "></path><path fill="rgb(254,110,0)" stroke="rgb(254,110,0)" stroke-width="1" opacity="0.4470588235294118" d="M 329.5 308 L 331 308.5 L 301.5 336 Q 297.9 329.1 290 326.5 L 291.5 326 L 301.5 335 L 329.5 308 Z "></path><path fill="rgb(254,110,0)" stroke="rgb(254,110,0)" stroke-width="1" opacity="0.4470588235294118" d="M 335.5 308 L 339 310.5 L 336.5 309 L 335.5 308 Z "></path><path fill="rgb(254,110,0)" stroke="rgb(254,110,0)" stroke-width="1" opacity="0.4470588235294118" d="M 383.5 308 L 384 352.5 L 383 352.5 L 383.5 308 Z "></path><path fill="rgb(254,110,0)" stroke="rgb(254,110,0)" stroke-width="1" opacity="0.4470588235294118" d="M 398.5 308 L 440.5 308 L 442 309.5 L 442 351.5 L 440.5 353 L 398 352.5 L 441 352 L 441 309 L 398.5 309 L 398.5 308 Z "></path><path fill="rgb(254,110,0)" stroke="rgb(254,110,0)" stroke-width="1" opacity="0.4470588235294118" d="M 339.5 312 L 340 317.5 L 305.5 353 L 303 352.5 L 305.5 352 L 338 319.5 L 339.5 312 Z "></path><path fill="rgb(254,110,0)" stroke="rgb(254,110,0)" stroke-width="1" opacity="0.4470588235294118" d="M 177.5 325 L 181 325.5 Q 175.1 325.6 173 329.5 L 172.5 332 L 172 329.5 L 177.5 325 Z "></path><path fill="rgb(254,110,0)" stroke="rgb(254,110,0)" stroke-width="1" opacity="0.4470588235294118" d="M 284.5 326 L 286 326.5 L 283 328.5 L 282 335.5 L 293.5 348 L 296 349.5 Q 295.3 351.8 297.5 351 L 300 352.5 L 298.5 353 L 282 337.5 L 281 330.5 L 284.5 326 Z "></path><path fill="rgb(254,110,0)" stroke="rgb(254,110,0)" stroke-width="1" opacity="0.4470588235294118" d="M 172.5 333 L 174 337.5 L 187.5 351 L 191 352.5 L 189.5 353 L 173 337.5 L 172.5 333 Z "></path><path fill="rgb(254,110,0)" stroke="rgb(254,110,0)" stroke-width="1" opacity="0.4470588235294118" d="M 127.5 355 L 128 357.5 L 125 363 L 117.5 366 L 117.5 365 Q 123.9 364.4 126 359.5 L 127.5 355 Z "></path><path fill="rgb(254,110,0)" stroke="rgb(254,110,0)" stroke-width="1" opacity="0.4470588235294118" d="M 384.5 355 Q 385.6 361.4 390.5 364 L 395 365.5 L 392.5 366 L 387 363 L 384 357.5 L 384.5 355 Z "></path><path fill="rgb(254,110,0)" stroke="rgb(254,110,0)" stroke-width="1" opacity="0.4470588235294118" d="M 69.5 366 L 116 366.5 L 69.5 367 L 69.5 366 Z "></path><path fill="rgb(254,110,0)" stroke="rgb(254,110,0)" stroke-width="1" opacity="0.4470588235294118" d="M 396.5 366 L 443 366.5 L 396.5 367 L 396.5 366 Z "></path><path fill="rgb(254,110,0)" stroke="rgb(254,110,0)" stroke-width="1" opacity="0.4470588235294118" d="M 67.5 384 L 117 384.5 L 67.5 385 Q 61.8 386.3 59 390.5 L 57 395.5 L 57 445.5 Q 58.4 451.6 63.5 454 L 67 455.5 L 65.5 456 L 59 451.5 L 56 445.5 L 56 395.5 Q 57.5 389 62.5 386 L 67.5 384 Z "></path><path fill="rgb(254,110,0)" stroke="rgb(254,110,0)" stroke-width="1" opacity="0.4470588235294118" d="M 176.5 384 L 226.5 384 L 235 389.5 L 237 394.5 L 236 394.5 L 232.5 388 L 226.5 385 L 176.5 385 L 169 389.5 L 166.5 395 L 166 392.5 L 170.5 387 L 176.5 384 Z "></path><path fill="rgb(254,110,0)" stroke="rgb(254,110,0)" stroke-width="1" opacity="0.4470588235294118" d="M 285.5 384 L 335.5 384 L 344 389.5 L 346 394.5 L 345 394.5 L 341.5 388 L 335.5 385 L 285.5 385 L 279 388 L 276.5 392 L 277 390.5 L 279.5 387 L 285.5 384 Z "></path><path fill="rgb(254,110,0)" stroke="rgb(254,110,0)" stroke-width="1" opacity="0.4470588235294118" d="M 121.5 386 L 125 388.5 L 128 395.5 L 127 395.5 L 126 391.5 L 121.5 386 Z "></path><path fill="rgb(254,110,0)" stroke="rgb(254,110,0)" stroke-width="1" opacity="0.4470588235294118" d="M 165.5 396 L 166 444.5 L 165 444.5 L 165.5 396 Z "></path><path fill="rgb(254,110,0)" stroke="rgb(254,110,0)" stroke-width="1" opacity="0.4470588235294118" d="M 346.5 396 L 347 444.5 L 346 444.5 L 346.5 396 Z "></path><path fill="rgb(254,110,0)" stroke="rgb(254,110,0)" stroke-width="1" opacity="0.4470588235294118" d="M 237.5 397 L 238 443.5 L 237 443.5 L 237.5 397 Z "></path><path fill="rgb(254,110,0)" stroke="rgb(254,110,0)" stroke-width="1" opacity="0.4470588235294118" d="M 274.5 397 L 275 443.5 L 274 443.5 L 274.5 397 Z "></path><path fill="rgb(254,110,0)" stroke="rgb(254,110,0)" stroke-width="1" opacity="0.4470588235294118" d="M 71.5 398 L 114 398.5 L 71 399 L 70.5 442 L 70 399.5 L 71.5 398 Z "></path><path fill="rgb(254,110,0)" stroke="rgb(254,110,0)" stroke-width="1" opacity="0.4470588235294118" d="M 128.5 398 L 129 442.5 L 128 442.5 L 128.5 398 Z "></path><path fill="rgb(254,110,0)" stroke="rgb(254,110,0)" stroke-width="1" opacity="0.4470588235294118" d="M 180.5 398 L 222.5 398 L 224 399.5 L 223.5 442 L 223 399 L 180 399 L 180 441.5 L 179 441.5 L 179 399.5 L 180.5 398 Z "></path><path fill="rgb(254,110,0)" stroke="rgb(254,110,0)" stroke-width="1" opacity="0.4470588235294118" d="M 289.5 398 L 331.5 398 L 333 399.5 L 332.5 442 L 332 399 L 289 399 L 289 441.5 L 288 441.5 L 288 399.5 L 289.5 398 Z "></path><path fill="rgb(254,110,0)" stroke="rgb(254,110,0)" stroke-width="1" opacity="0.4470588235294118" d="M 127.5 445 L 128 447.5 L 121.5 455 L 117.5 456 L 117.5 455 Q 123.9 454.4 126 449.5 L 127.5 445 Z "></path><path fill="rgb(254,110,0)" stroke="rgb(254,110,0)" stroke-width="1" opacity="0.4470588235294118" d="M 166.5 446 L 172.5 454 L 177 455.5 L 174.5 456 L 168 451.5 L 166.5 446 Z "></path><path fill="rgb(254,110,0)" stroke="rgb(254,110,0)" stroke-width="1" opacity="0.4470588235294118" d="M 236.5 446 L 237 447.5 L 234 453 L 226.5 456 L 226.5 455 Q 232.9 454.4 235 449.5 L 236.5 446 Z "></path><path fill="rgb(254,110,0)" stroke="rgb(254,110,0)" stroke-width="1" opacity="0.4470588235294118" d="M 275.5 446 L 281.5 454 L 286 455.5 L 283.5 456 L 278 453 L 275.5 446 Z "></path><path fill="rgb(254,110,0)" stroke="rgb(254,110,0)" stroke-width="1" opacity="0.4470588235294118" d="M 345.5 446 L 346 447.5 L 343 453 L 335.5 456 L 335.5 455 Q 341.9 454.4 344 449.5 L 345.5 446 Z "></path><path fill="rgb(254,110,0)" stroke="rgb(254,110,0)" stroke-width="1" opacity="0.4470588235294118" d="M 69.5 456 L 115 456.5 L 69.5 457 L 69.5 456 Z "></path><path fill="rgb(254,110,0)" stroke="rgb(254,110,0)" stroke-width="1" opacity="0.4470588235294118" d="M 179.5 456 L 224 456.5 L 179.5 457 L 179.5 456 Z "></path><path fill="rgb(254,110,0)" stroke="rgb(254,110,0)" stroke-width="1" opacity="0.4470588235294118" d="M 288.5 456 L 333 456.5 L 288.5 457 L 288.5 456 Z "></path><path fill="rgb(254,110,0)" stroke="rgb(254,110,0)" stroke-width="1" opacity="0.4470588235294118" d="M 28.5 479 L 31.5 483 L 33 483.5 L 31.5 484 L 28 480.5 L 28.5 479 Z "></path><path fill="rgb(254,110,0)" stroke="rgb(254,110,0)" stroke-width="1" opacity="0.4470588235294118" d="M 483.5 479 L 484 480.5 L 479.5 484 L 479.5 483 L 483 480.5 L 483.5 479 Z "></path><path fill="rgb(254,110,0)" stroke="rgb(254,110,0)" stroke-width="1" opacity="0.4470588235294118" d="M 14.5 482 Q 16.6 490.9 23.5 495 L 30 497.5 L 27.5 498 L 18 491.5 L 14 484.5 L 14.5 482 Z "></path><path fill="rgb(254,110,0)" stroke="rgb(254,110,0)" stroke-width="1" opacity="0.4470588235294118" d="M 497.5 482 L 498 484.5 L 491.5 494 L 482.5 498 L 482.5 497 Q 491.4 495.4 495 488.5 L 497.5 482 Z "></path><path fill="rgb(254,110,0)" stroke="rgb(254,110,0)" stroke-width="1" opacity="0.4470588235294118" d="M 34.5 484 L 171.5 484 L 176 487.5 L 175.5 489 L 173.5 486 L 171.5 485 L 34.5 485 L 34.5 484 Z "></path><path fill="rgb(254,110,0)" stroke="rgb(254,110,0)" stroke-width="1" opacity="0.4470588235294118" d="M 214.5 484 L 240.5 484 L 245 487.5 L 244.5 489 L 242.5 486 L 240.5 485 L 214.5 485 L 211 487.5 L 214.5 484 Z "></path><path fill="rgb(254,110,0)" stroke="rgb(254,110,0)" stroke-width="1" opacity="0.4470588235294118" d="M 283.5 484 L 309.5 484 L 314 488.5 L 313.5 494 Q 314.2 486.8 309.5 485 L 283.5 485 L 280.5 488 L 283.5 484 Z "></path><path fill="rgb(254,110,0)" stroke="rgb(254,110,0)" stroke-width="1" opacity="0.4470588235294118" d="M 352.5 484 L 478 484.5 L 352.5 485 L 350 486 L 348.5 490 L 348 488.5 L 350.5 485 L 352.5 484 Z "></path><path fill="rgb(254,110,0)" stroke="rgb(254,110,0)" stroke-width="1" opacity="0.4470588235294118" d="M 210.5 489 Q 210.3 494.7 213.5 497 L 215.5 498 L 240 498.5 L 215.5 499 L 211 495.5 L 210.5 489 Z "></path><path fill="rgb(254,110,0)" stroke="rgb(254,110,0)" stroke-width="1" opacity="0.4470588235294118" d="M 279.5 489 Q 279.3 494.7 282.5 497 L 284.5 498 L 308.5 498 L 312.5 495 L 310.5 498 L 308.5 499 L 284.5 499 L 280 495.5 L 279.5 489 Z "></path><path fill="rgb(254,110,0)" stroke="rgb(254,110,0)" stroke-width="1" opacity="0.4470588235294118" d="M 348.5 492 L 351.5 497 L 353.5 498 L 481 498.5 L 353.5 499 L 348 494.5 L 348.5 492 Z "></path><path fill="rgb(254,110,0)" stroke="rgb(254,110,0)" stroke-width="1" opacity="0.4470588235294118" d="M 175.5 493 L 176 494.5 L 175 497 L 172.5 498 L 175 494.5 L 175.5 493 Z "></path><path fill="rgb(254,110,0)" stroke="rgb(254,110,0)" stroke-width="1" opacity="0.4470588235294118" d="M 244.5 493 L 245 494.5 L 244 497 L 241.5 498 L 244 494.5 L 244.5 493 Z "></path><path fill="rgb(254,110,0)" stroke="rgb(254,110,0)" stroke-width="1" opacity="0.4470588235294118" d="M 31.5 498 L 171 498.5 L 31.5 499 L 31.5 498 Z "></path><path fill="rgb(254,111,0)" stroke="rgb(254,111,0)" stroke-width="1" opacity="0.996078431372549" d="M 113.5 17 L 112.5 19 L 113.5 17 Z "></path><path fill="rgb(254,111,0)" stroke="rgb(254,111,0)" stroke-width="1" opacity="0.996078431372549" d="M 142.5 17 L 143.5 19 L 142.5 17 Z "></path><path fill="rgb(254,111,0)" stroke="rgb(254,111,0)" stroke-width="1" opacity="0.996078431372549" d="M 369.5 17 L 368.5 19 L 369.5 17 Z "></path><path fill="rgb(254,111,0)" stroke="rgb(254,111,0)" stroke-width="1" opacity="0.996078431372549" d="M 398.5 17 L 399.5 19 L 398.5 17 Z "></path><path fill="rgb(254,111,0)" stroke="rgb(254,111,0)" stroke-width="1" opacity="0.996078431372549" d="M 110.5 19 L 109.5 21 L 110.5 19 Z "></path><path fill="rgb(254,111,0)" stroke="rgb(254,111,0)" stroke-width="1" opacity="0.996078431372549" d="M 145.5 19 L 146.5 21 L 145.5 19 Z "></path><path fill="rgb(254,111,0)" stroke="rgb(254,111,0)" stroke-width="1" opacity="0.996078431372549" d="M 366.5 19 L 365.5 21 L 366.5 19 Z "></path><path fill="rgb(254,111,0)" stroke="rgb(254,111,0)" stroke-width="1" opacity="0.996078431372549" d="M 401.5 19 L 402.5 21 L 401.5 19 Z "></path><path fill="rgb(254,111,0)" stroke="rgb(254,111,0)" stroke-width="1" opacity="0.996078431372549" d="M 103.5 26 L 102.5 28 L 103.5 26 Z "></path><path fill="rgb(254,111,0)" stroke="rgb(254,111,0)" stroke-width="1" opacity="0.996078431372549" d="M 152.5 26 L 153.5 28 L 152.5 26 Z "></path><path fill="rgb(254,111,0)" stroke="rgb(254,111,0)" stroke-width="1" opacity="0.996078431372549" d="M 359.5 26 L 358.5 28 L 359.5 26 Z "></path><path fill="rgb(254,111,0)" stroke="rgb(254,111,0)" stroke-width="1" opacity="0.996078431372549" d="M 408.5 26 L 409.5 28 L 408.5 26 Z "></path><path fill="rgb(254,111,0)" stroke="rgb(254,111,0)" stroke-width="1" opacity="0.996078431372549" d="M 117.5 30 L 113.5 35 L 117.5 30 Z "></path><path fill="rgb(254,111,0)" stroke="rgb(254,111,0)" stroke-width="1" opacity="0.996078431372549" d="M 138.5 30 L 142.5 35 L 138.5 30 Z "></path><path fill="rgb(254,111,0)" stroke="rgb(254,111,0)" stroke-width="1" opacity="0.996078431372549" d="M 373.5 30 L 369.5 35 L 373.5 30 Z "></path><path fill="rgb(254,111,0)" stroke="rgb(254,111,0)" stroke-width="1" opacity="0.996078431372549" d="M 394.5 30 L 398.5 35 L 394.5 30 Z "></path><path fill="rgb(254,111,0)" stroke="rgb(254,111,0)" stroke-width="1" opacity="0.996078431372549" d="M 110.5 41 L 111 43.5 L 110 43.5 L 110.5 41 Z "></path><path fill="rgb(254,111,0)" stroke="rgb(254,111,0)" stroke-width="1" opacity="0.996078431372549" d="M 145.5 41 L 146 43.5 L 145 43.5 L 145.5 41 Z "></path><path fill="rgb(254,111,0)" stroke="rgb(254,111,0)" stroke-width="1" opacity="0.996078431372549" d="M 366.5 41 L 367 43.5 L 366 43.5 L 366.5 41 Z "></path><path fill="rgb(254,111,0)" stroke="rgb(254,111,0)" stroke-width="1" opacity="0.996078431372549" d="M 401.5 41 L 402 43.5 L 401 43.5 L 401.5 41 Z "></path><path fill="rgb(254,111,0)" stroke="rgb(254,111,0)" stroke-width="1" opacity="0.996078431372549" d="M 23.5 62 L 22.5 64 L 23.5 62 Z "></path><path fill="rgb(254,111,0)" stroke="rgb(254,111,0)" stroke-width="1" opacity="0.996078431372549" d="M 488.5 62 L 489.5 64 L 488.5 62 Z "></path><path fill="rgb(254,111,0)" stroke="rgb(254,111,0)" stroke-width="1" opacity="0.996078431372549" d="M 110.5 63 L 111 68.5 L 110 68.5 L 110.5 63 Z "></path><path fill="rgb(254,111,0)" stroke="rgb(254,111,0)" stroke-width="1" opacity="0.996078431372549" d="M 145.5 63 L 146 68.5 L 145 68.5 L 145.5 63 Z "></path><path fill="rgb(254,111,0)" stroke="rgb(254,111,0)" stroke-width="1" opacity="0.996078431372549" d="M 366.5 63 L 367 68.5 L 366 68.5 L 366.5 63 Z "></path><path fill="rgb(254,111,0)" stroke="rgb(254,111,0)" stroke-width="1" opacity="0.996078431372549" d="M 401.5 63 L 402 68.5 L 401 68.5 L 401.5 63 Z "></path><path fill="rgb(254,111,0)" stroke="rgb(254,111,0)" stroke-width="1" opacity="0.996078431372549" d="M 18.5 67 L 17.5 69 L 18.5 67 Z "></path><path fill="rgb(254,111,0)" stroke="rgb(254,111,0)" stroke-width="1" opacity="0.996078431372549" d="M 493.5 67 L 494.5 69 L 493.5 67 Z "></path><path fill="rgb(254,111,0)" stroke="rgb(254,111,0)" stroke-width="1" opacity="0.996078431372549" d="M 32.5 72 L 97 72.5 L 32.5 73 L 32.5 72 Z "></path><path fill="rgb(254,111,0)" stroke="rgb(254,111,0)" stroke-width="1" opacity="0.996078431372549" d="M 159.5 72 L 353 72.5 L 159.5 73 L 159.5 72 Z "></path><path fill="rgb(254,111,0)" stroke="rgb(254,111,0)" stroke-width="1" opacity="0.996078431372549" d="M 415.5 72 L 480 72.5 L 415.5 73 L 415.5 72 Z "></path><path fill="rgb(254,111,0)" stroke="rgb(254,111,0)" stroke-width="1" opacity="0.996078431372549" d="M 30.5 73 L 28.5 76 L 30.5 73 Z "></path><path fill="rgb(254,111,0)" stroke="rgb(254,111,0)" stroke-width="1" opacity="0.996078431372549" d="M 481.5 73 L 483.5 76 L 481.5 73 Z "></path><path fill="rgb(254,111,0)" stroke="rgb(254,111,0)" stroke-width="1" opacity="0.996078431372549" d="M 497.5 75 L 498 77.5 L 497 77.5 L 497.5 75 Z "></path><path fill="rgb(254,111,0)" stroke="rgb(254,111,0)" stroke-width="1" opacity="0.996078431372549" d="M 110.5 87 L 111 89.5 L 110 89.5 L 110.5 87 Z "></path><path fill="rgb(254,111,0)" stroke="rgb(254,111,0)" stroke-width="1" opacity="0.996078431372549" d="M 145.5 87 L 146 89.5 L 145 89.5 L 145.5 87 Z "></path><path fill="rgb(254,111,0)" stroke="rgb(254,111,0)" stroke-width="1" opacity="0.996078431372549" d="M 366.5 87 L 367 89.5 L 366 89.5 L 366.5 87 Z "></path><path fill="rgb(254,111,0)" stroke="rgb(254,111,0)" stroke-width="1" opacity="0.996078431372549" d="M 401.5 87 L 402 89.5 L 401 89.5 L 401.5 87 Z "></path><path fill="rgb(254,111,0)" stroke="rgb(254,111,0)" stroke-width="1" opacity="0.996078431372549" d="M 158.5 89 L 159 91.5 L 158 91.5 L 158.5 89 Z "></path><path fill="rgb(254,111,0)" stroke="rgb(254,111,0)" stroke-width="1" opacity="0.996078431372549" d="M 414.5 89 L 415 91.5 L 414 91.5 L 414.5 89 Z "></path><path fill="rgb(254,111,0)" stroke="rgb(254,111,0)" stroke-width="1" opacity="0.996078431372549" d="M 114.5 98 L 116.5 101 L 114.5 98 Z "></path><path fill="rgb(254,111,0)" stroke="rgb(254,111,0)" stroke-width="1" opacity="0.996078431372549" d="M 141.5 98 L 139.5 101 L 141.5 98 Z "></path><path fill="rgb(254,111,0)" stroke="rgb(254,111,0)" stroke-width="1" opacity="0.996078431372549" d="M 370.5 98 L 372.5 101 L 370.5 98 Z "></path><path fill="rgb(254,111,0)" stroke="rgb(254,111,0)" stroke-width="1" opacity="0.996078431372549" d="M 397.5 98 L 395.5 101 L 397.5 98 Z "></path><path fill="rgb(254,111,0)" stroke="rgb(254,111,0)" stroke-width="1" opacity="0.996078431372549" d="M 125.5 104 L 131 104.5 L 125.5 105 L 125.5 104 Z "></path><path fill="rgb(254,111,0)" stroke="rgb(254,111,0)" stroke-width="1" opacity="0.996078431372549" d="M 381.5 104 L 387 104.5 L 381.5 105 L 381.5 104 Z "></path><path fill="rgb(254,111,0)" stroke="rgb(254,111,0)" stroke-width="1" opacity="0.996078431372549" d="M 103.5 105 L 109.5 112 L 103.5 105 Z "></path><path fill="rgb(254,111,0)" stroke="rgb(254,111,0)" stroke-width="1" opacity="0.996078431372549" d="M 152.5 105 L 146.5 112 L 152.5 105 Z "></path><path fill="rgb(254,111,0)" stroke="rgb(254,111,0)" stroke-width="1" opacity="0.996078431372549" d="M 359.5 105 L 365.5 112 L 359.5 105 Z "></path><path fill="rgb(254,111,0)" stroke="rgb(254,111,0)" stroke-width="1" opacity="0.996078431372549" d="M 408.5 105 L 402.5 112 L 408.5 105 Z "></path><path fill="rgb(254,111,0)" stroke="rgb(254,111,0)" stroke-width="1" opacity="0.996078431372549" d="M 124.5 117 L 127 117.5 L 124.5 118 L 124.5 117 Z "></path><path fill="rgb(254,111,0)" stroke="rgb(254,111,0)" stroke-width="1" opacity="0.996078431372549" d="M 129.5 117 L 132 117.5 L 129.5 118 L 129.5 117 Z "></path><path fill="rgb(254,111,0)" stroke="rgb(254,111,0)" stroke-width="1" opacity="0.996078431372549" d="M 380.5 117 L 383 117.5 L 380.5 118 L 380.5 117 Z "></path><path fill="rgb(254,111,0)" stroke="rgb(254,111,0)" stroke-width="1" opacity="0.996078431372549" d="M 385.5 117 L 388 117.5 L 385.5 118 L 385.5 117 Z "></path><path fill="rgb(254,111,0)" stroke="rgb(254,111,0)" stroke-width="1" opacity="0.996078431372549" d="M 27.5 176 L 485 176.5 L 27.5 177 L 27.5 176 Z "></path><path fill="rgb(254,111,0)" stroke="rgb(254,111,0)" stroke-width="1" opacity="0.996078431372549" d="M 285.5 205 L 287 205.5 L 283.5 207 L 283.5 206 L 285.5 205 Z "></path><path fill="rgb(254,111,0)" stroke="rgb(254,111,0)" stroke-width="1" opacity="0.996078431372549" d="M 173.5 206 L 172.5 208 L 173.5 206 Z "></path><path fill="rgb(254,111,0)" stroke="rgb(254,111,0)" stroke-width="1" opacity="0.996078431372549" d="M 229.5 206 L 230.5 208 L 229.5 206 Z "></path><path fill="rgb(254,111,0)" stroke="rgb(254,111,0)" stroke-width="1" opacity="0.996078431372549" d="M 338.5 206 L 339.5 208 L 338.5 206 Z "></path><path fill="rgb(254,111,0)" stroke="rgb(254,111,0)" stroke-width="1" opacity="0.996078431372549" d="M 450.5 208 L 451.5 210 L 450.5 208 Z "></path><path fill="rgb(254,111,0)" stroke="rgb(254,111,0)" stroke-width="1" opacity="0.996078431372549" d="M 168.5 211 L 167.5 213 L 168.5 211 Z "></path><path fill="rgb(254,111,0)" stroke="rgb(254,111,0)" stroke-width="1" opacity="0.996078431372549" d="M 343.5 211 L 344.5 213 L 343.5 211 Z "></path><path fill="rgb(254,111,0)" stroke="rgb(254,111,0)" stroke-width="1" opacity="0.996078431372549" d="M 397.5 218 L 398 262.5 L 397 262.5 L 397.5 218 Z "></path><path fill="rgb(254,111,0)" stroke="rgb(254,111,0)" stroke-width="1" opacity="0.996078431372549" d="M 167.5 268 L 168.5 270 L 167.5 268 Z "></path><path fill="rgb(254,111,0)" stroke="rgb(254,111,0)" stroke-width="1" opacity="0.996078431372549" d="M 344.5 268 L 343.5 270 L 344.5 268 Z "></path><path fill="rgb(254,111,0)" stroke="rgb(254,111,0)" stroke-width="1" opacity="0.996078431372549" d="M 451.5 271 L 450.5 273 L 451.5 271 Z "></path><path fill="rgb(254,111,0)" stroke="rgb(254,111,0)" stroke-width="1" opacity="0.996078431372549" d="M 339.5 273 L 338.5 275 L 339.5 273 Z "></path><path fill="rgb(254,111,0)" stroke="rgb(254,111,0)" stroke-width="1" opacity="0.996078431372549" d="M 120.5 296 L 121.5 298 L 120.5 296 Z "></path><path fill="rgb(254,111,0)" stroke="rgb(254,111,0)" stroke-width="1" opacity="0.996078431372549" d="M 61.5 298 L 60.5 300 L 61.5 298 Z "></path><path fill="rgb(254,111,0)" stroke="rgb(254,111,0)" stroke-width="1" opacity="0.996078431372549" d="M 450.5 298 L 451.5 300 L 450.5 298 Z "></path><path fill="rgb(254,111,0)" stroke="rgb(254,111,0)" stroke-width="1" opacity="0.996078431372549" d="M 114.5 308 L 115 352.5 L 114 352.5 L 114.5 308 Z "></path><path fill="rgb(254,111,0)" stroke="rgb(254,111,0)" stroke-width="1" opacity="0.996078431372549" d="M 397.5 308 L 398 352.5 L 397 352.5 L 397.5 308 Z "></path><path fill="rgb(254,111,0)" stroke="rgb(254,111,0)" stroke-width="1" opacity="0.996078431372549" d="M 227.5 309 L 228.5 311 L 227.5 309 Z "></path><path fill="rgb(254,111,0)" stroke="rgb(254,111,0)" stroke-width="1" opacity="0.996078431372549" d="M 336.5 309 L 338.5 312 L 336.5 309 Z "></path><path fill="rgb(254,111,0)" stroke="rgb(254,111,0)" stroke-width="1" opacity="0.996078431372549" d="M 228.5 319 L 197.5 351 L 228.5 319 Z "></path><path fill="rgb(254,111,0)" stroke="rgb(254,111,0)" stroke-width="1" opacity="0.996078431372549" d="M 337.5 319 L 305.5 352 L 337.5 319 Z "></path><path fill="rgb(254,111,0)" stroke="rgb(254,111,0)" stroke-width="1" opacity="0.996078431372549" d="M 175.5 327 L 173.5 330 L 175.5 327 Z "></path><path fill="rgb(254,111,0)" stroke="rgb(254,111,0)" stroke-width="1" opacity="0.996078431372549" d="M 284.5 327 L 283.5 329 L 284.5 327 Z "></path><path fill="rgb(254,111,0)" stroke="rgb(254,111,0)" stroke-width="1" opacity="0.996078431372549" d="M 293.5 328 L 301.5 337 L 293.5 328 Z "></path><path fill="rgb(254,111,0)" stroke="rgb(254,111,0)" stroke-width="1" opacity="0.996078431372549" d="M 174.5 337 L 187.5 351 L 174.5 337 Z "></path><path fill="rgb(254,111,0)" stroke="rgb(254,111,0)" stroke-width="1" opacity="0.996078431372549" d="M 283.5 337 L 293.5 348 L 283.5 337 Z "></path><path fill="rgb(254,111,0)" stroke="rgb(254,111,0)" stroke-width="1" opacity="0.996078431372549" d="M 191.5 352 L 194 352.5 L 191.5 353 L 191.5 352 Z "></path><path fill="rgb(254,111,0)" stroke="rgb(254,111,0)" stroke-width="1" opacity="0.996078431372549" d="M 300.5 352 L 303 352.5 L 300.5 353 L 300.5 352 Z "></path><path fill="rgb(254,111,0)" stroke="rgb(254,111,0)" stroke-width="1" opacity="0.996078431372549" d="M 125.5 359 L 124.5 361 L 125.5 359 Z "></path><path fill="rgb(254,111,0)" stroke="rgb(254,111,0)" stroke-width="1" opacity="0.996078431372549" d="M 386.5 359 L 387.5 361 L 386.5 359 Z "></path><path fill="rgb(254,111,0)" stroke="rgb(254,111,0)" stroke-width="1" opacity="0.996078431372549" d="M 60.5 361 L 61.5 363 L 60.5 361 Z "></path><path fill="rgb(254,111,0)" stroke="rgb(254,111,0)" stroke-width="1" opacity="0.996078431372549" d="M 451.5 361 L 450.5 363 L 451.5 361 Z "></path><path fill="rgb(254,111,0)" stroke="rgb(254,111,0)" stroke-width="1" opacity="0.996078431372549" d="M 122.5 362 L 121.5 364 L 122.5 362 Z "></path><path fill="rgb(254,111,0)" stroke="rgb(254,111,0)" stroke-width="1" opacity="0.996078431372549" d="M 389.5 362 L 390.5 364 L 389.5 362 Z "></path><path fill="rgb(254,111,0)" stroke="rgb(254,111,0)" stroke-width="1" opacity="0.996078431372549" d="M 448.5 363 L 447.5 365 L 448.5 363 Z "></path><path fill="rgb(254,111,0)" stroke="rgb(254,111,0)" stroke-width="1" opacity="0.996078431372549" d="M 120.5 386 L 121.5 388 L 120.5 386 Z "></path><path fill="rgb(254,111,0)" stroke="rgb(254,111,0)" stroke-width="1" opacity="0.996078431372549" d="M 62.5 387 L 59.5 391 L 62.5 387 Z "></path><path fill="rgb(254,111,0)" stroke="rgb(254,111,0)" stroke-width="1" opacity="0.996078431372549" d="M 170.5 388 L 169.5 390 L 170.5 388 Z "></path><path fill="rgb(254,111,0)" stroke="rgb(254,111,0)" stroke-width="1" opacity="0.996078431372549" d="M 232.5 388 L 233.5 390 L 232.5 388 Z "></path><path fill="rgb(254,111,0)" stroke="rgb(254,111,0)" stroke-width="1" opacity="0.996078431372549" d="M 341.5 388 L 342.5 390 L 341.5 388 Z "></path><path fill="rgb(254,111,0)" stroke="rgb(254,111,0)" stroke-width="1" opacity="0.996078431372549" d="M 277.5 391 L 276.5 393 L 277.5 391 Z "></path><path fill="rgb(254,111,0)" stroke="rgb(254,111,0)" stroke-width="1" opacity="0.996078431372549" d="M 114.5 398 L 115 443 L 70 442.5 L 114 442 L 114.5 398 Z "></path><path fill="rgb(254,111,0)" stroke="rgb(254,111,0)" stroke-width="1" opacity="0.996078431372549" d="M 179.5 442 L 224 442.5 L 179.5 443 L 179.5 442 Z "></path><path fill="rgb(254,111,0)" stroke="rgb(254,111,0)" stroke-width="1" opacity="0.996078431372549" d="M 288.5 442 L 333 442.5 L 288.5 443 L 288.5 442 Z "></path><path fill="rgb(254,111,0)" stroke="rgb(254,111,0)" stroke-width="1" opacity="0.996078431372549" d="M 236.5 443 L 237 445.5 L 236 445.5 L 236.5 443 Z "></path><path fill="rgb(254,111,0)" stroke="rgb(254,111,0)" stroke-width="1" opacity="0.996078431372549" d="M 125.5 449 L 124.5 451 L 125.5 449 Z "></path><path fill="rgb(254,111,0)" stroke="rgb(254,111,0)" stroke-width="1" opacity="0.996078431372549" d="M 122.5 452 L 121.5 454 L 122.5 452 Z "></path><path fill="rgb(254,111,0)" stroke="rgb(254,111,0)" stroke-width="1" opacity="0.996078431372549" d="M 231.5 452 L 230.5 454 L 231.5 452 Z "></path><path fill="rgb(254,111,0)" stroke="rgb(254,111,0)" stroke-width="1" opacity="0.996078431372549" d="M 67.5 455 L 70 455.5 L 67.5 456 L 67.5 455 Z "></path><path fill="rgb(254,111,0)" stroke="rgb(254,111,0)" stroke-width="1" opacity="0.996078431372549" d="M 28.5 481 L 30.5 484 L 28.5 481 Z "></path><path fill="rgb(254,111,0)" stroke="rgb(254,111,0)" stroke-width="1" opacity="0.996078431372549" d="M 483.5 481 L 481.5 484 L 483.5 481 Z "></path><path fill="rgb(254,111,0)" stroke="rgb(254,111,0)" stroke-width="1" opacity="0.996078431372549" d="M 214.5 485 L 211.5 489 L 214.5 485 Z "></path><path fill="rgb(254,111,0)" stroke="rgb(254,111,0)" stroke-width="1" opacity="0.996078431372549" d="M 283.5 485 L 280.5 489 L 283.5 485 Z "></path><path fill="rgb(254,111,0)" stroke="rgb(254,111,0)" stroke-width="1" opacity="0.996078431372549" d="M 173.5 486 L 174.5 488 L 173.5 486 Z "></path><path fill="rgb(254,111,0)" stroke="rgb(254,111,0)" stroke-width="1" opacity="0.996078431372549" d="M 242.5 486 L 243.5 488 L 242.5 486 Z "></path><path fill="rgb(254,111,0)" stroke="rgb(254,111,0)" stroke-width="1" opacity="0.996078431372549" d="M 17.5 488 L 18.5 490 L 17.5 488 Z "></path><path fill="rgb(254,111,0)" stroke="rgb(254,111,0)" stroke-width="1" opacity="0.996078431372549" d="M 494.5 488 L 493.5 490 L 494.5 488 Z "></path><path fill="rgb(254,111,0)" stroke="rgb(254,111,0)" stroke-width="1" opacity="0.996078431372549" d="M 175.5 489 L 176 492.5 L 175 492.5 L 175.5 489 Z "></path><path fill="rgb(254,111,0)" stroke="rgb(254,111,0)" stroke-width="1" opacity="0.996078431372549" d="M 244.5 489 L 245 492.5 L 244 492.5 L 244.5 489 Z "></path><path fill="rgb(254,111,0)" stroke="rgb(254,111,0)" stroke-width="1" opacity="0.996078431372549" d="M 489.5 493 L 488.5 495 L 489.5 493 Z "></path><path fill="rgb(254,111,0)" stroke="rgb(254,111,0)" stroke-width="1" opacity="0.996078431372549" d="M 312.5 494 L 310.5 497 L 312.5 494 Z "></path><path fill="rgb(254,111,0)" stroke="rgb(254,111,0)" stroke-width="1" opacity="0.996078431372549" d="M 212.5 495 L 213.5 497 L 212.5 495 Z "></path><path fill="rgb(254,111,0)" stroke="rgb(254,111,0)" stroke-width="1" opacity="0.996078431372549" d="M 281.5 495 L 282.5 497 L 281.5 495 Z "></path><path fill="rgb(56,129,255)" stroke="rgb(56,129,255)" stroke-width="1" opacity="1" d="M 124.5 14 L 131.5 14 L 139.5 16 L 152 25.5 L 158 37.5 L 159 59 L 352.5 59 L 353 58.5 L 353 42.5 Q 355.4 28.4 364.5 21 L 375.5 15 L 387.5 14 Q 401.2 16.3 408 25.5 L 414 37.5 L 415 59 L 478.5 59 Q 487.9 60.6 493 66.5 L 497 73.5 L 498 78.5 L 498 479.5 Q 496.1 488.1 490.5 493 L 479.5 498 L 354.5 498 L 350 496 Q 348.4 493.9 349 488.5 L 353.5 485 L 479.5 485 L 484 481.5 L 485 479.5 L 485 176 L 27 176 L 27 455.5 L 27 457.5 L 27 479.5 L 30.5 484 L 32.5 485 L 170.5 485 L 175 488.5 Q 176 495 172.5 497 L 169.5 498 L 32.5 498 Q 23.5 496.5 19 490.5 L 14 479.5 L 14 77.5 Q 15.9 68.9 21.5 64 L 28.5 60 L 33.5 59 L 97 59 L 98 37.5 Q 101.1 27.1 108.5 21 L 116.5 16 L 124.5 14 Z M 124 27 L 118 30 Q 112 34 110 42 L 110 90 L 114 99 Q 118 104 126 105 Q 135 105 140 101 Q 145 97 146 90 L 146 42 L 143 35 L 136 28 L 124 27 Z M 380 27 L 374 30 Q 368 34 366 42 L 366 90 L 370 99 Q 374 104 382 105 Q 391 105 396 101 Q 401 97 402 90 L 402 42 L 399 35 L 392 28 L 380 27 Z M 33 72 L 31 73 L 27 78 L 27 163 L 28 163 L 485 163 L 485 78 L 484 76 L 480 72 L 415 72 L 415 89 L 413 98 L 410 104 L 401 113 L 395 116 L 385 118 L 374 116 L 368 113 Q 356 106 353 90 L 353 73 L 353 72 L 159 72 L 159 89 L 157 98 L 154 104 L 145 113 L 139 116 L 129 118 L 118 116 L 112 113 Q 100 106 97 90 L 97 73 L 97 72 L 33 72 Z "></path><path fill="rgb(56,129,255)" stroke="rgb(56,129,255)" stroke-width="1" opacity="1" d="M 178.5 205 L 224.5 205 Q 231.1 205.9 234 210.5 L 237 217.5 L 237 263.5 L 231.5 273 L 224.5 276 L 178.5 276 Q 171.9 275.1 169 270.5 L 166 264.5 L 166 216.5 L 171.5 208 L 178.5 205 Z M 179 218 L 179 263 L 224 263 L 224 218 L 179 218 Z "></path><path fill="rgb(56,129,255)" stroke="rgb(56,129,255)" stroke-width="1" opacity="1" d="M 287.5 205 L 333.5 205 Q 340.1 205.9 343 210.5 L 346 216.5 L 346 263.5 Q 345.1 270.1 340.5 273 L 333.5 276 L 287.5 276 L 278 270.5 L 275 263.5 L 275 217.5 L 280.5 208 L 287.5 205 Z M 288 218 L 288 263 L 333 263 L 333 218 L 288 218 Z "></path><path fill="rgb(56,129,255)" stroke="rgb(56,129,255)" stroke-width="1" opacity="1" d="M 396.5 205 L 442.5 205 Q 449.9 206.1 453 211.5 L 455 216.5 L 455 264.5 Q 453.5 271 448.5 274 L 442.5 276 L 396.5 276 L 387 270.5 L 384 262.5 L 384 218.5 L 387 210.5 L 389.5 208 L 396.5 205 Z M 397 218 L 397 263 L 442 263 L 442 218 L 397 218 Z "></path><path fill="rgb(56,129,255)" stroke="rgb(56,129,255)" stroke-width="1" opacity="1" d="M 68.5 295 L 116.5 295 L 125 300.5 L 128 308.5 L 128 352.5 L 124 362 L 115.5 366 L 69.5 366 Q 62.1 364.9 59 359.5 L 57 354.5 L 57 306.5 Q 58.5 300 63.5 297 L 68.5 295 Z M 70 308 L 70 353 L 115 353 L 115 308 L 70 308 Z "></path><path fill="rgb(56,129,255)" stroke="rgb(56,129,255)" stroke-width="1" opacity="1" d="M 395.5 295 L 443.5 295 Q 450 296.5 453 301.5 L 455 306.5 L 455 354.5 Q 453.8 360.3 449.5 363 L 442.5 366 L 396.5 366 L 388 362 L 384 352.5 L 384 308.5 L 387 300.5 L 389.5 298 L 395.5 295 Z M 397 308 L 397 353 L 442 353 L 442 308 L 397 308 Z "></path><path fill="rgb(56,129,255)" stroke="rgb(56,129,255)" stroke-width="1" opacity="1" d="M 223.5 308 L 229 311.5 L 230 316.5 L 195.5 352 L 189.5 352 L 174 336.5 L 173 330.5 L 179.5 326 L 182.5 327 L 192.5 337 L 220.5 309 L 223.5 308 Z "></path><path fill="rgb(56,129,255)" stroke="rgb(56,129,255)" stroke-width="1" opacity="1" d="M 332.5 308 L 339 312.5 L 338 318.5 L 304.5 352 L 298.5 352 L 283 336.5 L 282 330.5 L 288.5 326 L 291.5 327 L 301.5 337 L 328.5 310 L 332.5 308 Z "></path><path fill="rgb(56,129,255)" stroke="rgb(56,129,255)" stroke-width="1" opacity="1" d="M 68.5 385 L 116.5 385 L 125 390.5 L 128 398.5 L 128 442.5 L 124 452 L 114.5 456 L 70.5 456 Q 62.7 454.8 59 449.5 L 57 444.5 L 57 396.5 Q 58.5 390 63.5 387 L 68.5 385 Z M 70 398 L 70 443 L 115 443 L 115 398 L 70 398 Z "></path><path fill="rgb(56,129,255)" stroke="rgb(56,129,255)" stroke-width="1" opacity="1" d="M 177.5 385 L 225.5 385 Q 231.3 386.3 234 390.5 L 237 397.5 L 237 442.5 L 232.5 452 L 223.5 456 L 179.5 456 L 171.5 453 L 169 450.5 L 166 444.5 L 166 396.5 Q 167.5 390 172.5 387 L 177.5 385 Z M 179 398 L 179 443 L 224 443 L 224 398 L 179 398 Z "></path><path fill="rgb(56,129,255)" stroke="rgb(56,129,255)" stroke-width="1" opacity="1" d="M 286.5 385 L 334.5 385 Q 341 386.5 344 391.5 L 346 396.5 L 346 443.5 Q 345.1 450.1 340.5 453 L 332.5 456 L 288.5 456 L 280.5 453 L 278 450.5 L 275 443.5 L 275 397.5 Q 276.1 390.1 281.5 387 L 286.5 385 Z M 288 398 L 288 443 L 333 443 L 333 398 L 288 398 Z "></path><path fill="rgb(56,129,255)" stroke="rgb(56,129,255)" stroke-width="1" opacity="1" d="M 215.5 485 L 239.5 485 L 244 488.5 Q 245 495 241.5 497 L 238.5 498 L 216.5 498 L 212 494.5 L 211 489.5 L 215.5 485 Z "></path><path fill="rgb(56,129,255)" stroke="rgb(56,129,255)" stroke-width="1" opacity="1" d="M 284.5 485 L 308.5 485 L 312 487.5 L 313 493.5 L 307.5 498 L 285.5 498 L 281 494.5 L 280 489.5 L 284.5 485 Z "></path></svg>