<svg width="512" height="512" version="1.1" xmlns="http://www.w3.org/2000/svg"><path fill="rgb(0,0,0)" stroke="rgb(0,0,0)" stroke-width="1" opacity="0" d="M 0 0 L 512 0 L 512 420.5 L 511 420.5 Q 507.7 402.3 495.5 393 Q 481.8 379.4 454 381 L 454 251.5 Q 451.8 243.8 446.5 239 L 434.5 233 L 299 233 L 299.5 48 L 358 104.5 L 361 112.5 L 361 208.5 L 364.5 213 L 369.5 214 L 376 209.5 L 377 207.5 L 377 110.5 Q 375.4 100.1 370 93.5 L 355.5 79 L 297.5 23 Q 294.9 19.6 287.5 21 L 163 63 L 163 29.5 Q 160.5 21 154.5 16 L 143.5 11 L 133.5 11 Q 122.8 13.3 118 21.5 L 114 32.5 L 114 80 L 81.5 90 Q 70.8 93.8 65 102.5 L 60 114.5 L 60 381 Q 27.3 384.1 12 405.5 L 3 421.5 L 0.5 432 L 0 0 Z M 327 267 L 325 268 Q 320 271 318 278 L 318 300 L 321 307 L 329 311 L 408 311 L 413 309 L 418 302 L 418 277 L 415 270 L 410 267 L 327 267 Z M 327 324 L 325 325 Q 320 328 318 335 L 318 357 L 321 364 L 329 368 L 408 368 L 413 366 L 418 359 L 418 334 L 415 327 L 410 324 L 327 324 Z M 147 341 L 118 351 L 114 357 L 115 362 L 121 366 L 125 366 L 156 355 L 158 352 L 157 344 Q 154 340 147 341 Z M 329 381 L 326 382 Q 320 385 318 393 L 318 415 L 320 420 L 327 425 L 361 425 L 363 424 L 369 416 L 369 392 L 366 386 L 359 381 L 329 381 Z "></path><path fill="rgb(0,0,0)" stroke="rgb(0,0,0)" stroke-width="1" opacity="0" d="M 136.5 27 Q 142.7 26.4 145 29 L 147 32.5 L 147 69 L 130 74 L 130 34.5 L 134.5 28 L 136.5 27 Z "></path><path fill="rgb(0,0,0)" stroke="rgb(0,0,0)" stroke-width="1" opacity="0" d="M 281.5 40 L 283 40.5 L 283 80 L 119.5 134 L 116 136.5 L 114 142.5 L 116 148 Q 118.3 150.6 124.5 150 L 283 97 L 283 133.5 L 280.5 134 L 119.5 188 L 116 190.5 L 114 196.5 L 116 202 Q 118.3 204.6 124.5 204 L 283 151 L 283 187.5 L 280.5 188 L 119.5 242 L 116 244.5 L 114 250.5 L 116 256 Q 118.3 258.6 124.5 258 L 283 205 L 283 241.5 L 280.5 242 L 119.5 296 L 116 298.5 L 114 304.5 L 116 310 Q 118.3 312.6 124.5 312 L 283 259 L 283 295.5 L 280.5 296 L 181.5 329 L 177 332.5 L 176 340.5 Q 177.8 346.8 187.5 345 L 193.5 342 L 283 313 L 283 485 L 219 485 L 219 402.5 L 211.5 393 Q 207.1 389.9 198.5 391 L 140.5 408 L 133.5 409 L 124.5 412 L 118 417.5 L 114 428.5 L 114 485 L 76.5 485 L 76 484.5 L 76 117.5 Q 77.8 110.3 83.5 107 L 281.5 40 Z "></path><path fill="rgb(0,0,0)" stroke="rgb(0,0,0)" stroke-width="1" opacity="0" d="M 299 249 L 431.5 249 L 436 251 L 438 254.5 L 438 386 Q 428.2 388.6 422 396.5 L 411 414.5 L 409 422.5 L 409 438 L 299 438 L 299 249 Z "></path><path fill="rgb(0,0,0)" stroke="rgb(0,0,0)" stroke-width="1" opacity="0" d="M 334 282 L 401.5 282 L 402 282.5 L 402 295 L 334.5 295 L 334 294.5 L 334 282 Z "></path><path fill="rgb(0,0,0)" stroke="rgb(0,0,0)" stroke-width="1" opacity="0" d="M 334 340 L 401.5 340 L 402 340.5 L 402 352 L 334.5 352 L 334 351.5 L 334 340 Z "></path><path fill="rgb(0,0,0)" stroke="rgb(0,0,0)" stroke-width="1" opacity="0" d="M 57.5 397 L 60 397.5 L 60 438 L 16.5 438 L 16 434.5 Q 20.7 415.7 34.5 406 L 45.5 400 L 57.5 397 Z "></path><path fill="rgb(0,0,0)" stroke="rgb(0,0,0)" stroke-width="1" opacity="0" d="M 334 397 L 353 397 L 353 410 L 334 410 L 334 397 Z "></path><path fill="rgb(0,0,0)" stroke="rgb(0,0,0)" stroke-width="1" opacity="0" d="M 455.5 397 Q 479.3 396.2 489 409.5 L 496 423.5 L 497 438 L 425.5 438 L 425 437.5 L 425 424.5 Q 428.9 410.4 439.5 403 Q 446 398.5 455.5 397 Z "></path><path fill="rgb(0,0,0)" stroke="rgb(0,0,0)" stroke-width="1" opacity="0" d="M 201.5 407 L 203 407.5 L 203 485 L 175 485 L 175 415.5 L 179.5 413 L 201.5 407 Z "></path><path fill="rgb(0,0,0)" stroke="rgb(0,0,0)" stroke-width="1" opacity="0" d="M 158.5 419 L 159 485 L 130 485 L 130 429.5 L 131 427 L 158.5 419 Z "></path><path fill="rgb(0,0,0)" stroke="rgb(0,0,0)" stroke-width="1" opacity="0" d="M 15 454 L 60 454 L 60 485 L 17.5 485 L 16 483.5 L 15 480.5 L 15 454 Z "></path><path fill="rgb(0,0,0)" stroke="rgb(0,0,0)" stroke-width="1" opacity="0" d="M 299 454 L 408.5 454 L 409 454.5 L 409 485 L 299.5 485 L 299 484.5 L 299 454 Z "></path><path fill="rgb(0,0,0)" stroke="rgb(0,0,0)" stroke-width="1" opacity="0" d="M 425 454 L 497 454 L 497 480.5 L 494.5 485 L 425 485 L 425 454 Z "></path><path fill="rgb(0,0,0)" stroke="rgb(0,0,0)" stroke-width="1" opacity="0" d="M 0.5 488 Q 2.4 494.6 7.5 498 L 14.5 501 L 497.5 501 Q 505.2 499.1 509 493.5 L 511.5 488 L 512 512 L 0.5 512 L 0 511.5 L 0.5 488 Z "></path><path fill="rgb(56,129,255)" stroke="rgb(56,129,255)" stroke-width="1" opacity="0.47843137254901963" d="M 133.5 11 L 144 11.5 L 133.5 12 L 133.5 11 Z "></path><path fill="rgb(56,129,255)" stroke="rgb(56,129,255)" stroke-width="1" opacity="0.47843137254901963" d="M 129.5 12 L 132 12.5 Q 123.1 14.6 119 21.5 L 117.5 24 L 118 22.5 L 125.5 14 L 129.5 12 Z "></path><path fill="rgb(56,129,255)" stroke="rgb(56,129,255)" stroke-width="1" opacity="0.47843137254901963" d="M 145.5 12 Q 153.8 13.7 158 19.5 L 162 27.5 L 161 27.5 L 154.5 17 L 145.5 13 L 145.5 12 Z "></path><path fill="rgb(56,129,255)" stroke="rgb(56,129,255)" stroke-width="1" opacity="0.47843137254901963" d="M 293.5 21 L 297.5 23 L 370 93.5 L 375 103.5 L 374 103.5 Q 369.9 91.6 360.5 85 L 301.5 28 L 293.5 22 L 293.5 21 Z "></path><path fill="rgb(56,129,255)" stroke="rgb(56,129,255)" stroke-width="1" opacity="0.47843137254901963" d="M 116.5 25 L 117 26.5 L 115.5 31 L 115 27.5 L 116.5 25 Z "></path><path fill="rgb(56,129,255)" stroke="rgb(56,129,255)" stroke-width="1" opacity="0.47843137254901963" d="M 136.5 26 L 140.5 26 L 147 30.5 L 146.5 32 L 145 29 Q 142.7 26.4 136.5 27 L 131 31.5 L 130.5 34 L 130 31.5 L 132.5 28 L 136.5 26 Z "></path><path fill="rgb(56,129,255)" stroke="rgb(56,129,255)" stroke-width="1" opacity="0.47843137254901963" d="M 162.5 29 L 163 62.5 L 164 63.5 L 162 62.5 L 162.5 29 Z "></path><path fill="rgb(56,129,255)" stroke="rgb(56,129,255)" stroke-width="1" opacity="0.47843137254901963" d="M 114.5 32 L 115 79.5 L 113.5 81 L 81.5 91 Q 71.8 94.8 66 102.5 L 61.5 113 L 61 110.5 Q 64.8 99.8 73.5 94 L 81.5 90 L 114 80 L 114.5 32 Z "></path><path fill="rgb(56,129,255)" stroke="rgb(56,129,255)" stroke-width="1" opacity="0.47843137254901963" d="M 254.5 32 L 256 32.5 L 192.5 54 L 192.5 53 L 254.5 32 Z "></path><path fill="rgb(56,129,255)" stroke="rgb(56,129,255)" stroke-width="1" opacity="0.47843137254901963" d="M 147.5 33 L 148 68.5 L 147 68.5 L 147.5 33 Z "></path><path fill="rgb(56,129,255)" stroke="rgb(56,129,255)" stroke-width="1" opacity="0.47843137254901963" d="M 281.5 39 L 284 39.5 L 284 79.5 L 283 79.5 L 283 40.5 L 281.5 40 L 273.5 43 L 273.5 42 L 281.5 39 Z "></path><path fill="rgb(56,129,255)" stroke="rgb(56,129,255)" stroke-width="1" opacity="0.47843137254901963" d="M 260.5 46 L 263 46.5 L 258.5 48 L 258.5 47 L 260.5 46 Z "></path><path fill="rgb(56,129,255)" stroke="rgb(56,129,255)" stroke-width="1" opacity="0.47843137254901963" d="M 298 47 L 310.5 57 L 359 104.5 L 361 111.5 L 360 111.5 L 358 104.5 L 346.5 93 L 299.5 48 L 299 233 L 435 233.5 L 299.5 234 L 298 232.5 L 298 47 Z "></path><path fill="rgb(56,129,255)" stroke="rgb(56,129,255)" stroke-width="1" opacity="0.47843137254901963" d="M 219.5 60 L 221 60.5 L 213.5 63 L 213.5 62 L 219.5 60 Z "></path><path fill="rgb(56,129,255)" stroke="rgb(56,129,255)" stroke-width="1" opacity="0.47843137254901963" d="M 210.5 63 L 212 63.5 L 154.5 83 L 154.5 82 L 210.5 63 Z "></path><path fill="rgb(56,129,255)" stroke="rgb(56,129,255)" stroke-width="1" opacity="0.47843137254901963" d="M 144.5 69 L 146 69.5 L 130.5 75 L 130.5 74 L 144.5 69 Z "></path><path fill="rgb(56,129,255)" stroke="rgb(56,129,255)" stroke-width="1" opacity="0.47843137254901963" d="M 274.5 82 L 276 82.5 L 191.5 111 L 191.5 110 L 274.5 82 Z "></path><path fill="rgb(56,129,255)" stroke="rgb(56,129,255)" stroke-width="1" opacity="0.47843137254901963" d="M 281.5 96 L 284 96.5 L 284 133.5 L 283 133.5 L 283 97.5 L 281.5 97 L 281.5 96 Z "></path><path fill="rgb(56,129,255)" stroke="rgb(56,129,255)" stroke-width="1" opacity="0.47843137254901963" d="M 277.5 97 L 280 97.5 L 272.5 100 L 272.5 99 L 277.5 97 Z "></path><path fill="rgb(56,129,255)" stroke="rgb(56,129,255)" stroke-width="1" opacity="0.47843137254901963" d="M 268.5 100 L 271 100.5 L 266.5 102 L 266.5 101 L 268.5 100 Z "></path><path fill="rgb(56,129,255)" stroke="rgb(56,129,255)" stroke-width="1" opacity="0.47843137254901963" d="M 91.5 103 L 93 103.5 L 83.5 107 L 78 112.5 L 76 117.5 L 76 485 L 114 485 L 114 428.5 L 115 428.5 L 115 486 L 75 486 L 75 117.5 Q 77.1 109.6 83.5 106 L 91.5 103 Z "></path><path fill="rgb(56,129,255)" stroke="rgb(56,129,255)" stroke-width="1" opacity="0.47843137254901963" d="M 375.5 105 L 376 108.5 L 375 108.5 L 375.5 105 Z "></path><path fill="rgb(56,129,255)" stroke="rgb(56,129,255)" stroke-width="1" opacity="0.47843137254901963" d="M 376.5 110 L 377 207.5 L 372.5 213 L 371 212.5 L 375 209.5 L 376 207.5 L 376.5 110 Z "></path><path fill="rgb(56,129,255)" stroke="rgb(56,129,255)" stroke-width="1" opacity="0.47843137254901963" d="M 60.5 114 L 61 380.5 Q 60.3 382.8 56.5 382 L 56.5 381 L 60 380.5 L 60.5 114 Z "></path><path fill="rgb(56,129,255)" stroke="rgb(56,129,255)" stroke-width="1" opacity="0.47843137254901963" d="M 224.5 115 L 226 115.5 L 150.5 141 L 150.5 140 L 224.5 115 Z "></path><path fill="rgb(56,129,255)" stroke="rgb(56,129,255)" stroke-width="1" opacity="0.47843137254901963" d="M 152.5 123 L 154 123.5 L 119.5 135 L 116 138.5 L 114.5 143 L 114 140.5 L 117.5 135 L 152.5 123 Z "></path><path fill="rgb(56,129,255)" stroke="rgb(56,129,255)" stroke-width="1" opacity="0.47843137254901963" d="M 265.5 139 L 267 139.5 L 262.5 141 L 262.5 140 L 265.5 139 Z "></path><path fill="rgb(56,129,255)" stroke="rgb(56,129,255)" stroke-width="1" opacity="0.47843137254901963" d="M 256.5 142 L 258 142.5 L 194.5 164 L 194.5 163 L 256.5 142 Z "></path><path fill="rgb(56,129,255)" stroke="rgb(56,129,255)" stroke-width="1" opacity="0.47843137254901963" d="M 115.5 144 L 119 148.5 L 117.5 148 Q 115.3 148.8 116 146.5 L 115.5 144 Z "></path><path fill="rgb(56,129,255)" stroke="rgb(56,129,255)" stroke-width="1" opacity="0.47843137254901963" d="M 120.5 149 L 125 149.5 L 120.5 150 L 120.5 149 Z "></path><path fill="rgb(56,129,255)" stroke="rgb(56,129,255)" stroke-width="1" opacity="0.47843137254901963" d="M 280.5 150 L 284 150.5 L 284 187.5 L 283 187.5 L 283 151.5 L 280.5 151 L 272.5 154 L 272.5 153 L 280.5 150 Z "></path><path fill="rgb(56,129,255)" stroke="rgb(56,129,255)" stroke-width="1" opacity="0.47843137254901963" d="M 218.5 171 L 220 171.5 L 150.5 195 L 150.5 194 L 218.5 171 Z "></path><path fill="rgb(56,129,255)" stroke="rgb(56,129,255)" stroke-width="1" opacity="0.47843137254901963" d="M 146.5 179 L 148 179.5 L 119.5 189 L 116 192.5 L 114.5 197 L 114 194.5 L 117.5 189 L 146.5 179 Z "></path><path fill="rgb(56,129,255)" stroke="rgb(56,129,255)" stroke-width="1" opacity="0.47843137254901963" d="M 146.5 195 L 149 195.5 L 141.5 198 L 141.5 197 L 146.5 195 Z "></path><path fill="rgb(56,129,255)" stroke="rgb(56,129,255)" stroke-width="1" opacity="0.47843137254901963" d="M 256.5 196 L 258 196.5 L 253.5 198 L 253.5 197 L 256.5 196 Z "></path><path fill="rgb(56,129,255)" stroke="rgb(56,129,255)" stroke-width="1" opacity="0.47843137254901963" d="M 115.5 198 L 119 202.5 L 117.5 202 Q 115.3 202.8 116 200.5 L 115.5 198 Z "></path><path fill="rgb(56,129,255)" stroke="rgb(56,129,255)" stroke-width="1" opacity="0.47843137254901963" d="M 247.5 199 L 249 199.5 L 185.5 221 L 185.5 220 L 247.5 199 Z "></path><path fill="rgb(56,129,255)" stroke="rgb(56,129,255)" stroke-width="1" opacity="0.47843137254901963" d="M 120.5 203 L 125 203.5 L 120.5 204 L 120.5 203 Z "></path><path fill="rgb(56,129,255)" stroke="rgb(56,129,255)" stroke-width="1" opacity="0.47843137254901963" d="M 280.5 204 L 284 204.5 L 284 241.5 L 283 241.5 L 283 205.5 L 280.5 205 L 254.5 214 L 254.5 213 L 280.5 204 Z "></path><path fill="rgb(56,129,255)" stroke="rgb(56,129,255)" stroke-width="1" opacity="0.47843137254901963" d="M 361.5 206 L 364.5 212 L 366 212.5 L 364.5 213 Q 359.7 211 361.5 206 Z "></path><path fill="rgb(56,129,255)" stroke="rgb(56,129,255)" stroke-width="1" opacity="0.47843137254901963" d="M 367.5 213 L 370 213.5 L 367.5 214 L 367.5 213 Z "></path><path fill="rgb(56,129,255)" stroke="rgb(56,129,255)" stroke-width="1" opacity="0.47843137254901963" d="M 212.5 227 L 214 227.5 L 135.5 254 L 135.5 253 L 212.5 227 Z "></path><path fill="rgb(56,129,255)" stroke="rgb(56,129,255)" stroke-width="1" opacity="0.47843137254901963" d="M 439.5 235 L 449 241.5 L 453 249.5 L 452 249.5 Q 449.6 240.9 442.5 237 Q 438.7 236.8 439.5 235 Z "></path><path fill="rgb(56,129,255)" stroke="rgb(56,129,255)" stroke-width="1" opacity="0.47843137254901963" d="M 134.5 237 L 136 237.5 L 117 244 L 114.5 251 L 114 248.5 L 117.5 243 L 134.5 237 Z "></path><path fill="rgb(56,129,255)" stroke="rgb(56,129,255)" stroke-width="1" opacity="0.47843137254901963" d="M 299.5 248 L 431.5 248 L 437 251.5 L 439 254.5 L 439 385.5 Q 426.6 391.1 419 401.5 L 415.5 407 L 416 405.5 L 423.5 395 Q 429.2 388.2 438 386 L 438 254.5 L 436 251 L 431.5 249 L 299 249 L 299 438 L 408.5 438 L 408.5 439 L 298 439 L 298 249.5 L 299.5 248 Z "></path><path fill="rgb(56,129,255)" stroke="rgb(56,129,255)" stroke-width="1" opacity="0.47843137254901963" d="M 453.5 251 L 454 254.5 L 453 254.5 L 453.5 251 Z "></path><path fill="rgb(56,129,255)" stroke="rgb(56,129,255)" stroke-width="1" opacity="0.47843137254901963" d="M 115.5 252 L 119 256.5 L 117.5 256 Q 115.3 256.8 116 254.5 L 115.5 252 Z "></path><path fill="rgb(56,129,255)" stroke="rgb(56,129,255)" stroke-width="1" opacity="0.47843137254901963" d="M 241.5 255 L 243 255.5 L 179.5 277 L 179.5 276 L 241.5 255 Z "></path><path fill="rgb(56,129,255)" stroke="rgb(56,129,255)" stroke-width="1" opacity="0.47843137254901963" d="M 120.5 257 L 125 257.5 L 120.5 258 L 120.5 257 Z "></path><path fill="rgb(56,129,255)" stroke="rgb(56,129,255)" stroke-width="1" opacity="0.47843137254901963" d="M 280.5 258 L 284 258.5 L 284 295.5 L 283 295.5 L 283 259.5 L 280.5 259 L 260.5 266 L 260.5 265 L 280.5 258 Z "></path><path fill="rgb(56,129,255)" stroke="rgb(56,129,255)" stroke-width="1" opacity="0.47843137254901963" d="M 326.5 267 L 329 267.5 Q 323.4 268.4 321 272.5 L 319.5 276 L 319 274.5 L 324.5 268 L 326.5 267 Z "></path><path fill="rgb(56,129,255)" stroke="rgb(56,129,255)" stroke-width="1" opacity="0.47843137254901963" d="M 407.5 267 L 415 270 L 417 274.5 L 416 274.5 L 411.5 269 L 407.5 268 L 407.5 267 Z "></path><path fill="rgb(56,129,255)" stroke="rgb(56,129,255)" stroke-width="1" opacity="0.47843137254901963" d="M 417.5 276 L 418 301.5 L 412.5 309 L 409.5 310 L 409.5 309 L 415 305.5 L 417 301.5 L 417.5 276 Z "></path><path fill="rgb(56,129,255)" stroke="rgb(56,129,255)" stroke-width="1" opacity="0.47843137254901963" d="M 318.5 277 L 319 299.5 L 318 299.5 L 318.5 277 Z "></path><path fill="rgb(56,129,255)" stroke="rgb(56,129,255)" stroke-width="1" opacity="0.47843137254901963" d="M 402.5 282 L 403 294.5 L 401.5 296 L 334.5 296 L 334.5 295 L 401.5 295 L 402 294.5 L 402.5 282 Z "></path><path fill="rgb(56,129,255)" stroke="rgb(56,129,255)" stroke-width="1" opacity="0.47843137254901963" d="M 206.5 283 L 208 283.5 L 141.5 306 L 141.5 305 L 206.5 283 Z "></path><path fill="rgb(56,129,255)" stroke="rgb(56,129,255)" stroke-width="1" opacity="0.47843137254901963" d="M 131.5 292 L 133 292.5 L 125.5 295 L 125.5 294 L 131.5 292 Z "></path><path fill="rgb(56,129,255)" stroke="rgb(56,129,255)" stroke-width="1" opacity="0.47843137254901963" d="M 122.5 295 L 124 295.5 L 117 298 L 114.5 305 L 114 302.5 L 117.5 297 L 122.5 295 Z "></path><path fill="rgb(56,129,255)" stroke="rgb(56,129,255)" stroke-width="1" opacity="0.47843137254901963" d="M 320.5 304 Q 322.8 308.8 328.5 310 L 408 310.5 L 328.5 311 L 321 306.5 L 320.5 304 Z "></path><path fill="rgb(56,129,255)" stroke="rgb(56,129,255)" stroke-width="1" opacity="0.47843137254901963" d="M 115.5 306 L 119 310.5 L 117.5 310 Q 115.3 310.8 116 308.5 L 115.5 306 Z "></path><path fill="rgb(56,129,255)" stroke="rgb(56,129,255)" stroke-width="1" opacity="0.47843137254901963" d="M 137.5 306 L 140 306.5 L 126.5 311 L 126.5 310 L 137.5 306 Z "></path><path fill="rgb(56,129,255)" stroke="rgb(56,129,255)" stroke-width="1" opacity="0.47843137254901963" d="M 120.5 311 L 125 311.5 L 120.5 312 L 120.5 311 Z "></path><path fill="rgb(56,129,255)" stroke="rgb(56,129,255)" stroke-width="1" opacity="0.47843137254901963" d="M 235.5 311 L 237 311.5 L 181.5 330 L 178 332.5 L 177 340.5 Q 178.8 345.8 187.5 344 L 192.5 342 L 192.5 343 Q 188.5 346 180.5 345 Q 174.5 343.5 176 334.5 L 179.5 330 L 235.5 311 Z "></path><path fill="rgb(56,129,255)" stroke="rgb(56,129,255)" stroke-width="1" opacity="0.47843137254901963" d="M 280.5 312 L 284 312.5 L 284 486 L 219 485.5 L 283 485 L 283 313.5 L 280.5 313 L 251.5 323 L 251.5 322 L 280.5 312 Z "></path><path fill="rgb(56,129,255)" stroke="rgb(56,129,255)" stroke-width="1" opacity="0.47843137254901963" d="M 326.5 324 L 329 324.5 Q 323.4 325.4 321 329.5 L 319.5 333 L 319 331.5 L 324.5 325 L 326.5 324 Z "></path><path fill="rgb(56,129,255)" stroke="rgb(56,129,255)" stroke-width="1" opacity="0.47843137254901963" d="M 407.5 324 L 415 327 L 417 331.5 L 416 331.5 L 411.5 326 L 407.5 325 L 407.5 324 Z "></path><path fill="rgb(56,129,255)" stroke="rgb(56,129,255)" stroke-width="1" opacity="0.47843137254901963" d="M 417.5 333 L 418 358.5 L 412.5 366 L 409.5 367 L 409.5 366 L 415 362.5 L 417 358.5 L 417.5 333 Z "></path><path fill="rgb(56,129,255)" stroke="rgb(56,129,255)" stroke-width="1" opacity="0.47843137254901963" d="M 318.5 334 L 319 356.5 L 318 356.5 L 318.5 334 Z "></path><path fill="rgb(56,129,255)" stroke="rgb(56,129,255)" stroke-width="1" opacity="0.47843137254901963" d="M 334.5 339 L 402.5 339 L 403 339.5 L 403 351.5 L 401.5 353 L 334.5 353 L 334.5 352 L 401.5 352 L 402 351.5 L 402 340 L 334.5 340 L 334.5 339 Z "></path><path fill="rgb(56,129,255)" stroke="rgb(56,129,255)" stroke-width="1" opacity="0.47843137254901963" d="M 152.5 341 L 157 343.5 L 158 351.5 L 155.5 355 L 124.5 366 L 120.5 366 L 120.5 365 L 124.5 365 L 151.5 356 L 157 351.5 Q 157.8 345.4 156 343 Q 151.8 343 152.5 341 Z "></path><path fill="rgb(56,129,255)" stroke="rgb(56,129,255)" stroke-width="1" opacity="0.47843137254901963" d="M 119.5 350 L 121 350.5 L 117 352 L 114.5 359 L 114 356.5 L 117.5 351 L 119.5 350 Z "></path><path fill="rgb(56,129,255)" stroke="rgb(56,129,255)" stroke-width="1" opacity="0.47843137254901963" d="M 319.5 358 L 320 360.5 L 325.5 366 L 328.5 367 L 408 367.5 L 328.5 368 L 321 363.5 Q 318 361.7 319.5 358 Z "></path><path fill="rgb(56,129,255)" stroke="rgb(56,129,255)" stroke-width="1" opacity="0.47843137254901963" d="M 115.5 360 L 119 364.5 L 115 361.5 L 115.5 360 Z "></path><path fill="rgb(56,129,255)" stroke="rgb(56,129,255)" stroke-width="1" opacity="0.47843137254901963" d="M 328.5 381 L 358.5 381 L 366 385.5 L 369 391.5 L 369 415.5 L 367.5 418 L 367 416.5 L 368 415.5 L 368 391.5 Q 366.6 385.4 361.5 383 L 358.5 382 L 328.5 382 Q 322.8 383.3 320.5 388 L 325.5 382 L 328.5 381 Z "></path><path fill="rgb(56,129,255)" stroke="rgb(56,129,255)" stroke-width="1" opacity="0.47843137254901963" d="M 454.5 381 L 468 381.5 L 454.5 382 L 454.5 381 Z "></path><path fill="rgb(56,129,255)" stroke="rgb(56,129,255)" stroke-width="1" opacity="0.47843137254901963" d="M 49.5 382 L 54 382.5 L 49.5 383 L 49.5 382 Z "></path><path fill="rgb(56,129,255)" stroke="rgb(56,129,255)" stroke-width="1" opacity="0.47843137254901963" d="M 469.5 382 L 474 382.5 L 469.5 383 L 469.5 382 Z "></path><path fill="rgb(56,129,255)" stroke="rgb(56,129,255)" stroke-width="1" opacity="0.47843137254901963" d="M 45.5 383 L 48 383.5 L 45.5 384 L 45.5 383 Z "></path><path fill="rgb(56,129,255)" stroke="rgb(56,129,255)" stroke-width="1" opacity="0.47843137254901963" d="M 475.5 383 Q 491.9 387.1 501 398.5 Q 507.2 405.3 510 415.5 L 509 415.5 Q 505.4 402.6 496.5 395 Q 488.4 387.1 475.5 384 L 475.5 383 Z "></path><path fill="rgb(56,129,255)" stroke="rgb(56,129,255)" stroke-width="1" opacity="0.47843137254901963" d="M 39.5 385 L 41 385.5 L 37.5 387 L 37.5 386 L 39.5 385 Z "></path><path fill="rgb(56,129,255)" stroke="rgb(56,129,255)" stroke-width="1" opacity="0.47843137254901963" d="M 31.5 389 L 30.5 391 Q 19.6 396.1 13 405.5 L 4 421.5 L 2.5 427 L 2 424.5 Q 8.7 405.2 23.5 394 L 31.5 389 Z "></path><path fill="rgb(56,129,255)" stroke="rgb(56,129,255)" stroke-width="1" opacity="0.47843137254901963" d="M 198.5 391 L 207 391.5 L 198.5 392 L 198.5 391 Z "></path><path fill="rgb(56,129,255)" stroke="rgb(56,129,255)" stroke-width="1" opacity="0.47843137254901963" d="M 194.5 392 L 197 392.5 L 191.5 394 L 191.5 393 L 194.5 392 Z "></path><path fill="rgb(56,129,255)" stroke="rgb(56,129,255)" stroke-width="1" opacity="0.47843137254901963" d="M 208.5 392 Q 214.6 393.4 217 398.5 Q 219.7 400.8 219 406.5 L 218 406.5 Q 217.6 397.4 211.5 394 Q 207.8 393.8 208.5 392 Z "></path><path fill="rgb(56,129,255)" stroke="rgb(56,129,255)" stroke-width="1" opacity="0.47843137254901963" d="M 318.5 392 L 319 414.5 L 318 414.5 L 318.5 392 Z "></path><path fill="rgb(56,129,255)" stroke="rgb(56,129,255)" stroke-width="1" opacity="0.47843137254901963" d="M 187.5 394 L 190 394.5 L 184.5 396 L 184.5 395 L 187.5 394 Z "></path><path fill="rgb(56,129,255)" stroke="rgb(56,129,255)" stroke-width="1" opacity="0.47843137254901963" d="M 180.5 396 L 183 396.5 L 180.5 397 L 180.5 396 Z "></path><path fill="rgb(56,129,255)" stroke="rgb(56,129,255)" stroke-width="1" opacity="0.47843137254901963" d="M 334.5 396 L 352.5 396 L 354 397.5 L 353.5 410 L 353 397 L 334.5 397 L 334.5 396 Z "></path><path fill="rgb(56,129,255)" stroke="rgb(56,129,255)" stroke-width="1" opacity="0.47843137254901963" d="M 457.5 396 L 463 396.5 L 457.5 397 L 457.5 396 Z "></path><path fill="rgb(56,129,255)" stroke="rgb(56,129,255)" stroke-width="1" opacity="0.47843137254901963" d="M 52.5 397 L 57 397.5 L 52.5 398 L 52.5 397 Z "></path><path fill="rgb(56,129,255)" stroke="rgb(56,129,255)" stroke-width="1" opacity="0.47843137254901963" d="M 60.5 397 L 61 437.5 L 59.5 439 L 15 439 L 15.5 435 L 16 438 L 60 438 L 60.5 397 Z "></path><path fill="rgb(56,129,255)" stroke="rgb(56,129,255)" stroke-width="1" opacity="0.47843137254901963" d="M 176.5 397 L 179 397.5 L 173.5 399 L 173.5 398 L 176.5 397 Z "></path><path fill="rgb(56,129,255)" stroke="rgb(56,129,255)" stroke-width="1" opacity="0.47843137254901963" d="M 451.5 397 L 455 397.5 L 451.5 398 L 451.5 397 Z "></path><path fill="rgb(56,129,255)" stroke="rgb(56,129,255)" stroke-width="1" opacity="0.47843137254901963" d="M 467.5 397 Q 482.9 399.1 490 409.5 L 493 414.5 L 491 413.5 L 484.5 405 Q 478.4 399.1 467.5 398 L 467.5 397 Z "></path><path fill="rgb(56,129,255)" stroke="rgb(56,129,255)" stroke-width="1" opacity="0.47843137254901963" d="M 48.5 398 L 51 398.5 Q 33.2 403.2 24 416.5 L 17.5 430 L 17 428.5 L 21 419.5 L 29 409 Q 36.9 402.1 48.5 398 Z "></path><path fill="rgb(56,129,255)" stroke="rgb(56,129,255)" stroke-width="1" opacity="0.47843137254901963" d="M 447.5 398 L 450 398.5 Q 437.3 401.8 431 411.5 L 425.5 424 L 425 421.5 Q 429.4 408.9 439.5 402 L 447.5 398 Z "></path><path fill="rgb(56,129,255)" stroke="rgb(56,129,255)" stroke-width="1" opacity="0.47843137254901963" d="M 169.5 399 L 172 399.5 L 166.5 401 L 166.5 400 L 169.5 399 Z "></path><path fill="rgb(56,129,255)" stroke="rgb(56,129,255)" stroke-width="1" opacity="0.47843137254901963" d="M 162.5 401 L 165 401.5 L 162.5 402 L 162.5 401 Z "></path><path fill="rgb(56,129,255)" stroke="rgb(56,129,255)" stroke-width="1" opacity="0.47843137254901963" d="M 158.5 402 L 161 402.5 L 155.5 404 L 155.5 403 L 158.5 402 Z "></path><path fill="rgb(56,129,255)" stroke="rgb(56,129,255)" stroke-width="1" opacity="0.47843137254901963" d="M 151.5 404 L 154 404.5 L 148.5 406 L 148.5 405 L 151.5 404 Z "></path><path fill="rgb(56,129,255)" stroke="rgb(56,129,255)" stroke-width="1" opacity="0.47843137254901963" d="M 144.5 406 L 147 406.5 L 141.5 408 L 141.5 407 L 144.5 406 Z "></path><path fill="rgb(56,129,255)" stroke="rgb(56,129,255)" stroke-width="1" opacity="0.47843137254901963" d="M 201.5 406 L 204 407.5 L 204 486 L 174 486 L 174 414.5 L 175.5 414 L 178.5 413 L 178.5 414 L 175 415.5 L 175 485 L 203 485 L 203 407.5 L 201.5 407 L 198.5 408 L 198.5 407 L 201.5 406 Z "></path><path fill="rgb(56,129,255)" stroke="rgb(56,129,255)" stroke-width="1" opacity="0.47843137254901963" d="M 137.5 408 L 140 408.5 L 137.5 409 L 137.5 408 Z "></path><path fill="rgb(56,129,255)" stroke="rgb(56,129,255)" stroke-width="1" opacity="0.47843137254901963" d="M 194.5 408 L 197 408.5 L 194.5 409 L 194.5 408 Z "></path><path fill="rgb(56,129,255)" stroke="rgb(56,129,255)" stroke-width="1" opacity="0.47843137254901963" d="M 414.5 408 L 414 409.5 L 411.5 417 L 411 414.5 L 414.5 408 Z "></path><path fill="rgb(56,129,255)" stroke="rgb(56,129,255)" stroke-width="1" opacity="0.47843137254901963" d="M 133.5 409 L 136 409.5 L 130.5 411 L 130.5 410 L 133.5 409 Z "></path><path fill="rgb(56,129,255)" stroke="rgb(56,129,255)" stroke-width="1" opacity="0.47843137254901963" d="M 190.5 409 L 193 409.5 L 187.5 411 L 187.5 410 L 190.5 409 Z "></path><path fill="rgb(56,129,255)" stroke="rgb(56,129,255)" stroke-width="1" opacity="0.47843137254901963" d="M 183.5 411 L 186 411.5 L 180.5 413 L 180.5 412 L 183.5 411 Z "></path><path fill="rgb(56,129,255)" stroke="rgb(56,129,255)" stroke-width="1" opacity="0.47843137254901963" d="M 124.5 412 L 126 412.5 L 119 417.5 L 116.5 422 L 116 420.5 L 121.5 414 L 124.5 412 Z "></path><path fill="rgb(56,129,255)" stroke="rgb(56,129,255)" stroke-width="1" opacity="0.47843137254901963" d="M 319.5 416 L 324.5 423 L 329 424.5 L 326.5 425 L 320 419.5 L 319.5 416 Z "></path><path fill="rgb(56,129,255)" stroke="rgb(56,129,255)" stroke-width="1" opacity="0.47843137254901963" d="M 510.5 417 L 511 419.5 L 510 419.5 L 510.5 417 Z "></path><path fill="rgb(56,129,255)" stroke="rgb(56,129,255)" stroke-width="1" opacity="0.47843137254901963" d="M 158.5 418 L 160 419.5 L 160 484.5 L 158.5 486 L 130.5 486 L 130.5 485 L 159 485 L 159 419.5 L 157.5 420 L 155 419.5 L 158.5 418 Z "></path><path fill="rgb(56,129,255)" stroke="rgb(56,129,255)" stroke-width="1" opacity="0.47843137254901963" d="M 410.5 418 L 411 420.5 L 410 420.5 L 410.5 418 Z "></path><path fill="rgb(56,129,255)" stroke="rgb(56,129,255)" stroke-width="1" opacity="0.47843137254901963" d="M 494.5 418 L 496 422.5 L 495 422.5 L 494.5 418 Z "></path><path fill="rgb(56,129,255)" stroke="rgb(56,129,255)" stroke-width="1" opacity="0.47843137254901963" d="M 366.5 419 L 362.5 424 L 358.5 425 L 358.5 424 Q 364.4 423.4 366.5 419 Z "></path><path fill="rgb(56,129,255)" stroke="rgb(56,129,255)" stroke-width="1" opacity="0.47843137254901963" d="M 151.5 420 L 154 420.5 L 151.5 421 L 151.5 420 Z "></path><path fill="rgb(56,129,255)" stroke="rgb(56,129,255)" stroke-width="1" opacity="0.47843137254901963" d="M 147.5 421 L 150 421.5 L 144.5 423 L 144.5 422 L 147.5 421 Z "></path><path fill="rgb(56,129,255)" stroke="rgb(56,129,255)" stroke-width="1" opacity="0.47843137254901963" d="M 511.5 421 L 512 425.5 L 511 425.5 L 511.5 421 Z "></path><path fill="rgb(56,129,255)" stroke="rgb(56,129,255)" stroke-width="1" opacity="0.47843137254901963" d="M 409.5 422 L 410 430.5 L 409 430.5 L 409.5 422 Z "></path><path fill="rgb(56,129,255)" stroke="rgb(56,129,255)" stroke-width="1" opacity="0.47843137254901963" d="M 115.5 423 L 116 425.5 L 115 425.5 L 115.5 423 Z "></path><path fill="rgb(56,129,255)" stroke="rgb(56,129,255)" stroke-width="1" opacity="0.47843137254901963" d="M 140.5 423 L 143 423.5 L 137.5 425 L 137.5 424 L 140.5 423 Z "></path><path fill="rgb(56,129,255)" stroke="rgb(56,129,255)" stroke-width="1" opacity="0.47843137254901963" d="M 496.5 424 L 497 430.5 L 496 430.5 L 496.5 424 Z "></path><path fill="rgb(56,129,255)" stroke="rgb(56,129,255)" stroke-width="1" opacity="0.47843137254901963" d="M 133.5 425 L 136 425.5 L 131 427 L 130.5 429 L 130 427.5 L 133.5 425 Z "></path><path fill="rgb(56,129,255)" stroke="rgb(56,129,255)" stroke-width="1" opacity="0.47843137254901963" d="M 424.5 426 L 425 438 L 497 438.5 L 424 439 L 424.5 426 Z "></path><path fill="rgb(56,129,255)" stroke="rgb(56,129,255)" stroke-width="1" opacity="0.47843137254901963" d="M 1.5 428 L 2 430.5 L 1 430.5 L 1.5 428 Z "></path><path fill="rgb(56,129,255)" stroke="rgb(56,129,255)" stroke-width="1" opacity="0.47843137254901963" d="M 16.5 431 L 17 433.5 L 16 433.5 L 16.5 431 Z "></path><path fill="rgb(56,129,255)" stroke="rgb(56,129,255)" stroke-width="1" opacity="0.47843137254901963" d="M 0.5 432 L 1 437.5 L 0 437.5 L 0.5 432 Z "></path><path fill="rgb(56,129,255)" stroke="rgb(56,129,255)" stroke-width="1" opacity="0.47843137254901963" d="M 60.5 454 L 61 484.5 L 59.5 486 L 17.5 486 Q 14.5 485.5 15 481.5 L 16 481.5 L 17.5 485 L 60 485 L 60.5 454 Z "></path><path fill="rgb(56,129,255)" stroke="rgb(56,129,255)" stroke-width="1" opacity="0.47843137254901963" d="M 298.5 454 L 299 485 L 409 485.5 L 299.5 486 L 298 484.5 L 298.5 454 Z "></path><path fill="rgb(56,129,255)" stroke="rgb(56,129,255)" stroke-width="1" opacity="0.47843137254901963" d="M 424.5 454 L 425 485 L 494.5 485 L 496 483.5 L 496.5 481 L 497 483.5 L 494.5 486 L 424 486 L 424.5 454 Z "></path><path fill="rgb(56,129,255)" stroke="rgb(56,129,255)" stroke-width="1" opacity="0.47843137254901963" d="M 0.5 485 Q 1.5 492.5 6.5 496 L 13 499.5 L 11.5 500 L 3 493.5 L 0 487.5 L 0.5 485 Z "></path><path fill="rgb(56,129,255)" stroke="rgb(56,129,255)" stroke-width="1" opacity="0.47843137254901963" d="M 511.5 485 L 512 487.5 Q 509.8 494.3 504.5 498 L 499.5 500 L 499.5 499 L 508 493.5 L 511.5 485 Z "></path><path fill="rgb(56,129,255)" stroke="rgb(56,129,255)" stroke-width="1" opacity="0.47843137254901963" d="M 14.5 500 L 498 500.5 L 14.5 501 L 14.5 500 Z "></path><path fill="rgb(56,129,255)" stroke="rgb(56,129,255)" stroke-width="1" opacity="0.996078431372549" d="M 132.5 12 L 144.5 12 Q 152.3 14.3 157 19.5 L 162 28.5 L 162 62.5 L 163.5 64 L 253.5 34 L 256.5 32 L 292.5 21 L 301.5 28 L 369 93.5 L 375 104.5 L 376 109.5 L 376 207.5 L 372.5 212 L 366.5 213 L 363 210.5 L 361 205.5 L 361 108.5 L 359 104.5 L 339.5 85 L 310.5 57 L 298 47 L 298 232.5 L 299.5 234 L 435.5 234 Q 445.2 236.8 450 244.5 L 454 255.5 L 454 382 L 474.5 383 Q 488.9 387.1 498 396.5 L 508 411.5 L 512 426.5 L 512 484.5 Q 510.6 492.1 505.5 496 L 498.5 500 L 13.5 500 L 4 493.5 L 0 484.5 L 0 438.5 L 2 427.5 L 9 411.5 L 23.5 395 L 41.5 385 Q 49 382 59.5 382 L 61 380.5 L 61 113.5 Q 64 102 72.5 96 L 81.5 91 L 113.5 81 L 115 79.5 L 115 31.5 Q 116.9 19.9 125.5 15 L 132.5 12 Z M 137 26 L 133 28 L 130 32 L 130 75 L 148 69 L 148 34 L 147 31 L 141 26 L 137 26 Z M 282 39 L 273 43 L 261 46 L 258 48 L 84 106 Q 77 110 75 118 L 75 486 L 76 486 L 115 486 L 115 427 L 119 418 L 130 411 L 187 396 L 198 392 Q 207 390 212 394 L 216 399 L 219 408 L 219 486 L 284 486 L 284 312 L 281 312 L 188 344 Q 179 346 177 341 L 178 333 L 182 330 L 283 296 L 284 296 L 284 258 L 263 264 L 260 266 L 144 304 L 141 306 L 129 309 L 126 311 L 120 311 L 115 306 L 117 298 L 283 242 L 284 242 L 284 204 L 257 212 L 254 214 L 138 252 L 126 257 L 120 257 L 115 252 L 117 244 L 283 188 L 284 188 L 284 150 L 275 152 L 272 154 L 153 193 L 150 195 L 144 196 L 126 203 L 120 203 L 115 198 L 116 193 L 120 189 L 283 134 L 284 134 L 284 96 L 269 100 L 266 102 L 126 149 L 120 149 L 115 144 L 116 139 L 120 135 L 284 80 L 284 40 L 282 39 Z M 300 248 L 298 250 L 298 439 L 409 439 L 411 418 L 419 402 Q 427 391 439 386 L 439 255 L 437 252 L 432 248 L 300 248 Z M 458 396 L 448 398 L 440 402 Q 427 410 424 427 L 424 439 L 425 439 L 497 439 L 497 425 L 490 410 L 477 399 L 471 397 L 458 396 Z M 53 397 L 38 403 L 29 409 L 18 426 L 15 439 L 60 439 L 61 438 L 61 398 L 61 397 L 53 397 Z M 202 406 L 176 414 L 174 415 L 174 486 L 204 486 L 204 408 L 202 406 Z M 159 418 L 132 426 L 130 428 L 130 486 L 159 486 L 160 485 L 160 420 L 159 418 Z M 15 454 L 15 484 L 18 486 L 60 486 L 61 485 L 61 454 L 15 454 Z M 298 454 L 298 485 L 300 486 L 409 486 L 409 455 L 409 454 L 298 454 Z M 424 454 L 424 486 L 495 486 L 497 484 L 497 454 L 424 454 Z "></path><path fill="rgb(56,129,255)" stroke="rgb(56,129,255)" stroke-width="1" opacity="0.996078431372549" d="M 329.5 267 L 406.5 267 Q 413 268.5 416 273.5 L 417 275.5 L 417 301.5 L 412.5 308 L 408.5 310 L 328.5 310 Q 322.4 308.6 320 303.5 L 319 300.5 L 319 276.5 L 324.5 269 L 329.5 267 Z M 334 282 L 334 296 L 402 296 L 403 295 L 403 283 L 403 282 L 334 282 Z "></path><path fill="rgb(56,129,255)" stroke="rgb(56,129,255)" stroke-width="1" opacity="0.996078431372549" d="M 329.5 324 L 406.5 324 Q 413 325.5 416 330.5 L 417 332.5 L 417 358.5 L 412.5 365 L 408.5 367 L 328.5 367 Q 322.4 365.6 320 360.5 L 319 357.5 L 319 333.5 L 324.5 326 L 329.5 324 Z M 334 339 L 334 353 L 402 353 L 403 352 L 403 340 L 403 339 L 334 339 Z "></path><path fill="rgb(56,129,255)" stroke="rgb(56,129,255)" stroke-width="1" opacity="0.996078431372549" d="M 148.5 341 L 156 343 Q 157.8 345.4 157 351.5 L 151.5 356 L 124.5 365 L 119.5 365 Q 115.1 362.9 115 356.5 L 117 352 L 148.5 341 Z "></path><path fill="rgb(56,129,255)" stroke="rgb(56,129,255)" stroke-width="1" opacity="0.996078431372549" d="M 328.5 382 L 358.5 382 Q 364.6 383.4 367 388.5 L 368 391.5 L 368 415.5 L 362.5 423 L 357.5 425 L 329.5 425 Q 323.8 423.8 321 419.5 L 319 415.5 L 319 391.5 Q 320.4 385.4 325.5 383 L 328.5 382 Z M 334 396 L 334 410 L 354 410 L 354 398 L 353 396 L 334 396 Z "></path></svg>